<?xml version="1.0" encoding="utf-8"?>
<!-- Generator: Adobe Illustrator 24.0.2, SVG Export Plug-In . SVG Version: 6.00 Build 0)  -->
<!DOCTYPE svg PUBLIC "-//W3C//DTD SVG 1.1//EN" "http://www.w3.org/Graphics/SVG/1.1/DTD/svg11.dtd" [
	<!ENTITY ns_extend "http://ns.adobe.com/Extensibility/1.0/">
	<!ENTITY ns_ai "http://ns.adobe.com/AdobeIllustrator/10.0/">
	<!ENTITY ns_graphs "http://ns.adobe.com/Graphs/1.0/">
	<!ENTITY ns_vars "http://ns.adobe.com/Variables/1.0/">
	<!ENTITY ns_imrep "http://ns.adobe.com/ImageReplacement/1.0/">
	<!ENTITY ns_sfw "http://ns.adobe.com/SaveForWeb/1.0/">
	<!ENTITY ns_custom "http://ns.adobe.com/GenericCustomNamespace/1.0/">
	<!ENTITY ns_adobe_xpath "http://ns.adobe.com/XPath/1.0/">
]>
<svg version="1.1" id="Слой_1" xmlns:x="&ns_extend;" xmlns:i="&ns_ai;" xmlns:graph="&ns_graphs;"
	 xmlns="http://www.w3.org/2000/svg" xmlns:xlink="http://www.w3.org/1999/xlink" x="0px" y="0px" viewBox="0 0 220.3 103.3"
	 style="enable-background:new 0 0 220.3 103.3;" xml:space="preserve">
<style type="text/css">
	.st0{fill:#0088E7;}
</style>
<metadata>
	<sfw  xmlns="&ns_sfw;">
		<slices></slices>
		<sliceSourceBounds  bottomLeftOrigin="true" height="103.4" width="220.4" x="0" y="0"></sliceSourceBounds>
	</sfw>
</metadata>
<path class="st0" d="M22.5,45.3c-1.3,0-2.3-1-2.4-2.3l-0.1-2.2H20c-2.4,3.3-6.2,5.2-10.3,5.1c-3.2,0-5.6-1-7.2-2.9
	C0.8,41,0,38,0,33.8V16.3c0-1.3,1.1-2.4,2.4-2.4h1.2c1.3,0,2.4,1.1,2.4,2.4v16.9c0,2.8,0.5,4.8,1.4,5.9s2.4,1.7,4.5,1.7
	c2.2-0.1,4.3-1.2,5.6-3c1.7-1.9,2.6-4.4,2.5-7V16.3c0-1.3,1.1-2.4,2.4-2.4h1.3c1.3,0,2.4,1.1,2.4,2.4v26.6c0,1.3-1.1,2.4-2.4,2.4
	H22.5z"/>
<path class="st0" d="M39.6,13.9c1.3,0,2.3,1,2.4,2.3l0.1,2.2h0.1c1.3-1.6,2.8-2.9,4.6-3.8c1.8-0.9,3.7-1.4,5.7-1.4
	c6.8,0,10.2,4.6,10.3,13.9v15.7c0,1.3-1.1,2.4-2.4,2.4h-1.2c-1.3,0-2.4-1.1-2.4-2.4V27.8c0-3.7-0.5-6.2-1.4-7.5s-2.6-2-5-2
	c-2.1,0-3.9,1-5.6,3c-1.7,2-2.6,4.5-2.5,7.1v14.5c0,1.3-1.1,2.4-2.4,2.4h-1.3c-1.3,0-2.4-1.1-2.4-2.4V16.3c0-1.3,1.1-2.4,2.4-2.4
	H39.6z"/>
<path class="st0" d="M74.7,4.3V2.4c0-1.3,1.1-2.4,2.4-2.4h1.7c1.3,0,2.4,1.1,2.4,2.4v1.9c0,1.3-1.1,2.4-2.4,2.4h-1.7
	C75.8,6.6,74.7,5.6,74.7,4.3z M74.7,42.9V16.3c0-1.3,1.1-2.4,2.4-2.4h1.7c1.3,0,2.4,1.1,2.4,2.4v26.6c0,1.3-1.1,2.4-2.4,2.4h-1.7
	C75.8,45.3,74.7,44.2,74.7,42.9z"/>
<path class="st0" d="M96,13.9c1,0,2,0.7,2.3,1.7l7.9,26.1h0.1l7.9-26.1c0.3-1,1.2-1.7,2.3-1.7h1.4c1.3,0,2.4,1.1,2.4,2.4
	c0,0.3,0,0.5-0.1,0.8l-9.2,26.6c-0.3,1-1.2,1.6-2.2,1.6h-5.1c-1,0-1.9-0.6-2.2-1.6L92.1,17c-0.4-1.2,0.2-2.6,1.5-3
	c0.3-0.1,0.5-0.1,0.8-0.1L96,13.9z"/>
<path class="st0" d="M135.8,32c-1.3,0-2.4,1.1-2.4,2.4c0,0.3,0.1,0.6,0.1,0.8c0.5,1.3,1.3,2.5,2.4,3.5c1.9,1.7,4.4,2.6,6.9,2.5
	c2.3,0,4.6-0.4,6.7-1.3c1.2-0.5,2.6,0.1,3.1,1.3c0,0,0,0.1,0,0.1l0,0c0.4,1.2-0.2,2.6-1.4,3c-2.9,1-5.9,1.5-9,1.5
	c-4.2,0.1-8.2-1.5-11.1-4.4c-2.9-3-4.3-6.9-4.3-11.8c0-5.1,1.3-9.1,4-12c2.8-2.9,6.7-4.5,10.8-4.3c4.5,0,7.9,1.4,10.4,4.1
	s3.7,6.7,3.7,11.9c0,0.1,0,0.3,0,0.4c0,1.3-1.1,2.3-2.4,2.3L135.8,32z M135.7,27.3h11.6c1.3,0,2.4-1,2.4-2.3c0-0.2,0-0.3,0-0.5
	c-0.3-1.5-1-2.9-2-4c-1.6-1.7-3.8-2.5-6.1-2.4c-2.3-0.1-4.6,0.8-6.2,2.5c-1,1.1-1.8,2.5-2.1,4c-0.3,1.3,0.6,2.5,1.9,2.8
	C135.3,27.3,135.5,27.3,135.7,27.3L135.7,27.3z"/>
<path class="st0" d="M184.7,15.8v0.3c0,1.2-0.9,2.2-2.2,2.4c-3.1,0.2-6,1.4-8.3,3.5c-2.6,2.4-4,5.9-3.9,9.4v11.5
	c0,1.3-1.1,2.4-2.4,2.4h-1.4c-1.3,0-2.4-1.1-2.4-2.4V16.3c0-1.3,1.1-2.4,2.4-2.4h1.2c1.3,0,2.4,1,2.4,2.3l0.1,3.7h0.1
	c2.9-3.6,7.1-5.9,11.7-6.4c1.3-0.2,2.5,0.7,2.7,2C184.7,15.6,184.7,15.7,184.7,15.8z"/>
<path class="st0" d="M206,38h0.1l8.4-22.6c0.3-0.9,1.2-1.5,2.2-1.5h1.3c1.3,0,2.4,1.1,2.4,2.4c0,0.3-0.1,0.6-0.2,0.9L204,57.1
	c-0.4,0.9-1.2,1.5-2.2,1.5h-1.2c-1.3,0-2.4-1.1-2.4-2.4c0-0.3,0.1-0.6,0.2-0.9l4-9.1c0.2-0.6,0.2-1.2,0-1.8l-10-27.3
	c-0.4-1.2,0.2-2.6,1.4-3c0.3-0.1,0.5-0.1,0.8-0.1h1.5c1,0,1.9,0.7,2.3,1.6L206,38z"/>
<path class="st0" d="M6.3,73.3c1.6-2.5,4.4-3.9,7.3-3.8c2.7-0.1,5.3,1,7,3.1c1.7,2.1,2.5,5.1,2.5,9.1s-0.9,7-2.6,9.1
	c-3.4,3.8-9.2,4.2-13,0.8c-0.4-0.3-0.7-0.7-1-1.1H6.4v11.1c0,1-0.8,1.8-1.8,1.8H3.7c-1,0-1.8-0.8-1.8-1.8V71.7c0-1,0.8-1.8,1.8-1.8
	h0.7c1,0,1.8,0.8,1.8,1.8L6.3,73.3L6.3,73.3z M18.6,81.6c0-2.9-0.5-5-1.6-6.5c-1.1-1.4-2.8-2.2-4.6-2.2c-1.7,0-3.4,0.8-4.4,2.2
	c-1.2,1.8-1.8,4-1.7,6.1v0.5C6.2,84,6.8,86.2,8,88c1,1.4,2.7,2.2,4.4,2.2c1.8,0.1,3.5-0.8,4.5-2.2C18.2,86.1,18.8,83.9,18.6,81.6z"
	/>
<path class="st0" d="M31,91.6V61.3c0-1,0.8-1.8,1.8-1.8H34c1,0,1.8,0.8,1.8,1.8v30.3c0,1-0.8,1.8-1.8,1.8h-1.2
	C31.8,93.4,31,92.6,31,91.6z"/>
<path class="st0" d="M61.7,93.4c-1,0-1.8-0.8-1.8-1.8V90h-0.1c-1.8,2.5-4.7,3.9-7.7,3.8c-2,0.2-4.1-0.6-5.4-2.2
	c-1.2-1.5-1.8-3.7-1.8-6.9V71.7c0-1,0.8-1.8,1.8-1.8h0.8c1,0,1.8,0.8,1.8,1.8v12.7c0,2.1,0.3,3.6,1,4.5c0.9,0.9,2.1,1.4,3.4,1.2
	c1.7-0.1,3.2-0.9,4.2-2.2c1.3-1.5,1.9-3.3,1.9-5.3V71.7c0-1,0.8-1.8,1.8-1.8h0.9c1,0,1.8,0.8,1.8,1.8v19.9c0,1-0.8,1.8-1.8,1.8H61.7
	z"/>
<path class="st0" d="M80,73c-3,0-4.5,1-4.5,2.9c0,0.9,0.4,1.7,1.1,2.2c1.1,0.7,2.4,1.1,3.7,1.2c3.2,0.5,5.4,1.3,6.8,2.6
	c1.4,1.3,2.1,3.2,2,5.1c0.1,2-0.8,3.8-2.4,5c-2,1.3-4.3,2-6.7,1.8c-2.6,0-5.3-0.5-7.7-1.6c-0.8-0.4-1.2-1.3-1-2.1l0,0
	c0.3-1,1.2-1.5,2.2-1.3c0.1,0,0.2,0.1,0.3,0.1c2,0.8,4.1,1.3,6.2,1.2c3,0,4.4-1,4.4-3.2c0.1-0.9-0.3-1.8-1-2.4
	c-1.1-0.7-2.3-1.1-3.7-1.2c-3.1-0.5-5.3-1.4-6.7-2.6c-1.4-1.2-2.2-3-2.1-4.9c-0.1-1.9,0.8-3.7,2.3-4.8c1.6-1.2,3.8-1.8,6.7-1.8
	c2.3,0,4.5,0.4,6.7,1.2c0.9,0.3,1.3,1.2,1.1,2.1l0,0c-0.3,1-1.3,1.6-2.3,1.3c-0.1,0-0.1,0-0.2-0.1C83.6,73.3,81.8,73,80,73z"/>
</svg>
