<svg xmlns="http://www.w3.org/2000/svg" viewBox="0 0 220.28 103.34"><defs><style>.a{fill:#fff;}</style></defs><title>logo2</title><path class="a" d="M872.28,533.46a2.37,2.37,0,0,1-2.37-2.31l-.06-2.22h-.12a12.49,12.49,0,0,1-10.32,5.13q-4.83,0-7.24-2.9c-1.61-1.93-2.42-5-2.42-9.17V504.45a2.38,2.38,0,0,1,2.38-2.37h1.17a2.37,2.37,0,0,1,2.37,2.37v16.94c0,2.85.45,4.84,1.36,5.94s2.4,1.66,4.49,1.66a7.32,7.32,0,0,0,5.61-3,10.52,10.52,0,0,0,2.54-7V504.45a2.37,2.37,0,0,1,2.37-2.37h1.29a2.37,2.37,0,0,1,2.37,2.37v26.63a2.38,2.38,0,0,1-2.37,2.38Z" transform="translate(-849.75 -488.2)"/><path class="a" d="M889.32,502.08a2.38,2.38,0,0,1,2.37,2.31l.06,2.22h.12a13.87,13.87,0,0,1,4.64-3.78,12.59,12.59,0,0,1,5.68-1.35q10.24,0,10.25,13.87v15.73a2.38,2.38,0,0,1-2.37,2.38H908.9a2.38,2.38,0,0,1-2.37-2.38V516c0-3.66-.47-6.17-1.42-7.51s-2.62-2-5-2q-3.08,0-5.61,3.05a10.76,10.76,0,0,0-2.53,7.09v14.52a2.38,2.38,0,0,1-2.37,2.38h-1.29a2.38,2.38,0,0,1-2.37-2.38V504.45a2.37,2.37,0,0,1,2.37-2.37Z" transform="translate(-849.75 -488.2)"/><path class="a" d="M924.45,492.47v-1.9a2.37,2.37,0,0,1,2.37-2.37h1.65a2.38,2.38,0,0,1,2.38,2.37v1.9a2.38,2.38,0,0,1-2.38,2.37h-1.65A2.37,2.37,0,0,1,924.45,492.47Zm0,38.61V504.45a2.37,2.37,0,0,1,2.37-2.37h1.65a2.38,2.38,0,0,1,2.38,2.37v26.63a2.39,2.39,0,0,1-2.38,2.38h-1.65A2.38,2.38,0,0,1,924.45,531.08Z" transform="translate(-849.75 -488.2)"/><path class="a" d="M945.74,502.08a2.39,2.39,0,0,1,2.27,1.69l7.87,26.07H956l7.87-26.07a2.39,2.39,0,0,1,2.27-1.69h1.43a2.37,2.37,0,0,1,2.24,3.15l-9.22,26.63a2.38,2.38,0,0,1-2.24,1.6h-5.07a2.38,2.38,0,0,1-2.24-1.6l-9.22-26.63a2.37,2.37,0,0,1,2.24-3.15Z" transform="translate(-849.75 -488.2)"/><path class="a" d="M985.56,520.18a2.39,2.39,0,0,0-2.23,3.22,8.34,8.34,0,0,0,2.33,3.48,9.92,9.92,0,0,0,6.91,2.47,18.87,18.87,0,0,0,6.73-1.27,2.38,2.38,0,0,1,3.13,1.46h0a2.38,2.38,0,0,1-1.43,3,26.77,26.77,0,0,1-9,1.54,14.78,14.78,0,0,1-11.08-4.44q-4.3-4.43-4.31-11.85,0-7.6,4-11.95a14,14,0,0,1,10.77-4.34q6.71,0,10.44,4.1t3.74,11.89v.41a2.37,2.37,0,0,1-2.38,2.3Zm-.14-4.71h11.64a2.36,2.36,0,0,0,2.33-2.82,8.42,8.42,0,0,0-2-4,7.81,7.81,0,0,0-6.07-2.42,8.13,8.13,0,0,0-6.18,2.45,8.62,8.62,0,0,0-2.09,4A2.37,2.37,0,0,0,985.42,515.47Z" transform="translate(-849.75 -488.2)"/><path class="a" d="M1034.44,504v.29a2.39,2.39,0,0,1-2.17,2.36,13.84,13.84,0,0,0-8.33,3.49,12.29,12.29,0,0,0-3.86,9.44v11.5a2.38,2.38,0,0,1-2.37,2.38h-1.41a2.38,2.38,0,0,1-2.37-2.38V504.45a2.37,2.37,0,0,1,2.37-2.37h1.15a2.37,2.37,0,0,1,2.38,2.32l.07,3.71h.12a17.71,17.71,0,0,1,11.71-6.47A2.39,2.39,0,0,1,1034.44,504Z" transform="translate(-849.75 -488.2)"/><path class="a" d="M1055.74,526.22h.12l8.36-22.59a2.37,2.37,0,0,1,2.22-1.55h1.23a2.36,2.36,0,0,1,2.19,3.26l-16.17,39.91a2.39,2.39,0,0,1-2.2,1.48h-1.18a2.37,2.37,0,0,1-2.17-3.32l4-9.08a2.41,2.41,0,0,0,.06-1.77l-10-27.29a2.38,2.38,0,0,1,2.23-3.19H1046a2.38,2.38,0,0,1,2.25,1.62Z" transform="translate(-849.75 -488.2)"/><path class="a" d="M856,561.45a8.35,8.35,0,0,1,7.29-3.84,8.48,8.48,0,0,1,7,3.1c1.68,2.06,2.51,5.1,2.51,9.12s-.86,7-2.6,9.07a9.19,9.19,0,0,1-14.05-.25h-.09v11.09a1.81,1.81,0,0,1-1.81,1.81h-.91a1.81,1.81,0,0,1-1.81-1.81V559.87a1.81,1.81,0,0,1,1.81-1.81h.73a1.81,1.81,0,0,1,1.81,1.76l0,1.63Zm12.36,8.38q0-4.3-1.63-6.45a5.42,5.42,0,0,0-4.57-2.15,5.29,5.29,0,0,0-4.39,2.24,9.81,9.81,0,0,0-1.72,6.13v.45a9.81,9.81,0,0,0,1.72,6.16,5.34,5.34,0,0,0,4.39,2.21,5.4,5.4,0,0,0,4.5-2.21A10.36,10.36,0,0,0,868.39,569.83Z" transform="translate(-849.75 -488.2)"/><path class="a" d="M880.7,579.78V549.46a1.81,1.81,0,0,1,1.81-1.81h1.18a1.81,1.81,0,0,1,1.8,1.81v30.32a1.81,1.81,0,0,1-1.8,1.81h-1.18A1.81,1.81,0,0,1,880.7,579.78Z" transform="translate(-849.75 -488.2)"/><path class="a" d="M911.42,581.59a1.81,1.81,0,0,1-1.81-1.76l0-1.63h-.09a9.36,9.36,0,0,1-7.74,3.84,6.64,6.64,0,0,1-5.43-2.17q-1.81-2.18-1.81-6.88V559.87a1.81,1.81,0,0,1,1.81-1.81h.81a1.81,1.81,0,0,1,1.81,1.81v12.67c0,2.14.34,3.63,1,4.46a4.11,4.11,0,0,0,3.37,1.24,5.47,5.47,0,0,0,4.21-2.24,7.87,7.87,0,0,0,1.9-5.27V559.87a1.81,1.81,0,0,1,1.81-1.81h.91a1.81,1.81,0,0,1,1.81,1.81v19.91a1.81,1.81,0,0,1-1.81,1.81Z" transform="translate(-849.75 -488.2)"/><path class="a" d="M929.75,561.23q-4.53,0-4.53,2.94a2.56,2.56,0,0,0,1.07,2.19,8.66,8.66,0,0,0,3.69,1.2c3.16.49,5.43,1.34,6.78,2.56a6.54,6.54,0,0,1,2,5.14,5.88,5.88,0,0,1-2.38,5,10.76,10.76,0,0,1-6.67,1.81,18.58,18.58,0,0,1-7.67-1.56,1.83,1.83,0,0,1-1-2.11h0a1.81,1.81,0,0,1,2.51-1.19,15.49,15.49,0,0,0,6.19,1.24c3,0,4.43-1,4.43-3.16a2.9,2.9,0,0,0-1-2.38,7.87,7.87,0,0,0-3.65-1.24q-4.65-.78-6.74-2.56a6.12,6.12,0,0,1-2.08-4.91,5.68,5.68,0,0,1,2.35-4.77c1.57-1.2,3.8-1.79,6.7-1.79a18.48,18.48,0,0,1,6.65,1.16,1.81,1.81,0,0,1,1.12,2.14v0a1.84,1.84,0,0,1-2.45,1.24A15,15,0,0,0,929.75,561.23Z" transform="translate(-849.75 -488.2)"/></svg>