<?xml version="1.0" standalone="no"?>
<!DOCTYPE svg PUBLIC "-//W3C//DTD SVG 1.1//EN" "http://www.w3.org/Graphics/SVG/1.1/DTD/svg11.dtd" >
<svg xmlns="http://www.w3.org/2000/svg" xmlns:xlink="http://www.w3.org/1999/xlink" version="1.1">
<metadata>
Created by FontForge 20170731 at Sun Jun 13 11:56:21 2021
 By Aleksey,,,
Copyright 2011 The Lora Project Authors (https://github.com/cyrealtype/Lora-Cyrillic), with Reserved Font Name "Lora".
</metadata>
<defs>
<font id="Lora-BoldItalic" horiz-adv-x="0" >
  <font-face 
    font-family="Lora"
    font-weight="700"
    font-style="italic"
    font-stretch="normal"
    units-per-em="1000"
    panose-1="0 0 0 0 0 0 0 0 0 0"
    ascent="800"
    descent="-200"
    x-height="511"
    cap-height="700"
    bbox="-108 -271 1078.49 982.519"
    underline-thickness="50"
    underline-position="-175"
    slope="-3"
    unicode-range="U+0020-2116"
  />
<missing-glyph horiz-adv-x="542" 
d="M55 500h453l-26 -500h-453zM165 72h189l19 356h-189z" />
    <glyph glyph-name=".notdef" horiz-adv-x="542" 
d="M55 500h453l-26 -500h-453zM165 72h189l19 356h-189z" />
    <glyph glyph-name="uni0000" horiz-adv-x="263" 
 />
    <glyph glyph-name="nonmarkingreturn" horiz-adv-x="333" 
 />
    <glyph glyph-name="CR" horiz-adv-x="263" 
 />
    <glyph glyph-name="space" unicode=" " horiz-adv-x="263" 
 />
    <glyph glyph-name="A" horiz-adv-x="667" 
d="M384 718l185 -545q5 -15 13.5 -45.5t9.5 -53.5l57 3l-3 -77h-268l4 66q28 0 39.5 11.5t11 31.5t-8.5 45l-17 55l-219 -4l-19 -47q-5 -13 -15.5 -38.5t-20.5 -42.5l74 3l-5 -80h-214l4 69q28 0 45.5 16t30.5 42t26 56l223 535h67zM315 542q-4 -17 -16 -51t-31 -81
l-51 -130h168l-39 125q-10 36 -19 72.5t-12 64.5z" />
    <glyph glyph-name="B" horiz-adv-x="659" 
d="M347 702q119 1 186.5 -44.5t56.5 -137.5q-3 -29 -20 -56.5t-48.5 -49.5t-79.5 -35v-1q98 -16 141.5 -66.5t40.5 -112.5q-3 -65 -36.5 -109.5t-89 -67t-125.5 -22.5h-338l4 66q22 1 38 6t25.5 23t11.5 58l20 383q2 27 4.5 52t4.5 38q-16 -1 -40 -1.5t-35 -1.5l4 77
q69 1 137.5 1t137.5 1zM346 323h-43t-38 -1l-8 -163q-1 -27 -4 -51t-5 -37h34t32 0.5t32 0.5q61 3 90.5 39t32.5 91q3 46 -14.5 72.5t-46.5 37.5t-62 11zM340 632q-16 0 -30 -5t-22.5 -22.5t-10.5 -56.5l-8 -155q13 0 26 0.5t26 0.5q43 1 68.5 19t37.5 48.5t13 66.5
q3 40 -12 62.5t-38.5 32.5t-49.5 9z" />
    <glyph glyph-name="C" horiz-adv-x="690" 
d="M408 716q39 0 84.5 -12.5t84.5 -36.5h1l-1 42h77l-12 -233h-66q-9 83 -49 127.5t-110 44.5q-52 0 -92.5 -24t-68.5 -65.5t-43.5 -93t-18.5 -105.5q-4 -86 17.5 -153.5t67 -106.5t112.5 -40q60 -1 125 28.5t116 95.5l39 -40q-52 -67 -107.5 -101.5t-107.5 -46.5t-94 -12
q-77 0 -138.5 27.5t-104.5 76t-64 113t-17 139.5q4 68 29.5 135t72 121.5t114 87t154.5 32.5z" />
    <glyph glyph-name="E" horiz-adv-x="623" 
d="M570 700l-5 -194h-65q3 55 -15 83t-45.5 37.5t-54.5 8.5l-36 -1q-21 0 -36.5 -5.5t-24.5 -24t-11 -57.5l-7 -150h117v29.5v30.5v27h77l-12 -243h-66q2 42 -10.5 60.5t-34.5 23.5t-49 4l-26 -1l-9 -164q-1 -27 -3.5 -51t-4.5 -37h134q30 0 58.5 13.5t48 45t22.5 85.5h66
l-17 -220h-526l4 66q22 1 38 6t25.5 23t11.5 58l20 383q2 27 4.5 52t4.5 38q-16 -1 -40 -1.5t-35 -1.5l4 77h498z" />
    <glyph glyph-name="H" horiz-adv-x="802" 
d="M774 700l-3 -66q-22 -1 -38.5 -6t-26 -22.5t-11.5 -58.5l-20 -383q-1 -27 -4 -52t-5 -38q17 2 41 2.5t34 0.5l-4 -77h-284l3 66q23 1 39 6t25.5 23t11.5 58l9 162l-276 -3l-8 -148q-1 -27 -3.5 -52t-4.5 -38q16 2 40.5 2.5t34.5 0.5l-4 -77h-285l4 66q22 1 38 6t25.5 23
t11.5 58l20 383q2 27 4.5 52t4.5 38q-16 -1 -40 -1.5t-35 -1.5l4 77h284l-3 -66q-22 -1 -38.5 -6t-26 -22.5t-11.5 -58.5l-8 -156h275l8 145q2 27 4 52t5 38q-16 -1 -40.5 -1.5t-35.5 -1.5l4 77h285z" />
    <glyph glyph-name="I" horiz-adv-x="384" 
d="M356 700l-3 -66q-22 -1 -38.5 -6t-26 -22.5t-11.5 -58.5l-20 -383q-1 -27 -3.5 -52t-4.5 -38q16 2 40.5 2.5t34.5 0.5l-4 -77h-285l4 66q22 1 38 6t25.5 23t11.5 58l20 383q2 27 4.5 52t4.5 38q-16 -1 -40 -1.5t-35 -1.5l4 77h284z" />
    <glyph glyph-name="J" horiz-adv-x="445" 
d="M440 700l-3 -66q-22 -1 -38.5 -6t-26 -22.5t-11.5 -58.5l-15 -293q-5 -96 -32 -155.5t-74 -87t-115 -27.5q-39 0 -70.5 14t-49.5 38t-16 55q2 32 20.5 57t52.5 26q38 2 53 -18.5t15 -46.5q0 -8 -2.5 -18t-7.5 -19q4 -10 14 -13t15 -3q15 0 25 8t16 25.5t7 45.5l21 401
q2 27 4.5 52t4.5 38q-10 0 -26.5 -0.5t-31.5 -1t-22 -1.5l4 77h289z" />
    <glyph glyph-name="K" horiz-adv-x="711" 
d="M35 0l4 66q22 1 38 6t25.5 23t11.5 58l20 383q2 27 4.5 52t4.5 38q-16 -1 -40 -1.5t-35 -1.5l4 77h284l-3 -66q-22 -1 -38.5 -6t-26 -22.5t-11.5 -58.5l-8 -152h73l83 131q20 30 40.5 60t33.5 41q-16 -1 -34 -2t-29 -2l3 77h245l-3 -66q-22 -1 -48 -8t-54 -28t-58 -66
l-104 -154q19 -13 34 -27.5t25 -31.5l94 -145q19 -28 39.5 -52.5t42.5 -39.5t44 -16l-4 -66h-152q-8 1 -25.5 18t-36 41t-31.5 43l-91 144q-13 19 -27.5 39t-27.5 30h-14h-22l-8 -151q-1 -27 -3.5 -52t-4.5 -38q16 2 40.5 2.5t34.5 0.5l-4 -77h-285z" />
    <glyph glyph-name="M" horiz-adv-x="970" 
d="M397 -10l-122 329q-7 19 -18 54.5t-22 78.5t-19 83h-1q-1 -51 -2.5 -98t-4.5 -92l-11 -181q-1 -27 -4 -52t-5 -38q17 2 41.5 2.5t34.5 0.5l-4 -77h-228l4 66q23 1 38.5 6t24.5 23t12 58l26 383q2 27 4.5 52t4.5 38q-16 -1 -40.5 -1.5t-35.5 -1.5l5 77h214l137 -388
q17 -46 27.5 -86t20.5 -76h1l28 70t27 67l58 138t57.5 137.5t57.5 137.5h233l-4 -66q-22 -1 -39 -6t-26.5 -22.5t-10.5 -58.5l-5 -383q0 -27 -3 -52t-6 -38q17 2 41.5 2.5t34.5 0.5l-4 -77h-280l4 66q23 1 39.5 6t26 23t9.5 58l3 212q1 12 1 42.5v67v67.5h-1l-47 -114
l-182 -438h-90z" />
    <glyph glyph-name="N" horiz-adv-x="772" 
d="M566 -10l-298 411q-12 17 -25 36t-26 39h-1l-14 -312q-1 -27 -4 -52t-5 -38q17 2 41 2.5t35 0.5l-5 -77h-228l4 66q23 1 39 6t25.5 23t11.5 58l17 383q2 27 4.5 52t4.5 38q-16 -1 -40.5 -1.5t-35.5 -1.5l5 77h157l285 -387q23 -32 38.5 -55.5t26.5 -40.5h1l16 319
q2 27 4.5 52t4.5 38q-16 -1 -40.5 -1.5t-35.5 -1.5l5 77h227l-3 -66q-23 -1 -39 -6t-25.5 -22.5t-11.5 -58.5l-30 -557h-85z" />
    <glyph glyph-name="O" horiz-adv-x="762" 
d="M406 716q91 0 154.5 -33t102 -87.5t54.5 -118.5t13 -127q-3 -62 -27.5 -126t-70 -118.5t-112 -88t-155.5 -33.5q-95 0 -159.5 32t-102 85.5t-52.5 118.5t-11 130q3 63 27 127.5t70 118.5t113 87t156 33zM389 648q-51 -1 -87.5 -28t-59.5 -70t-34.5 -92.5t-13.5 -95.5
q-3 -47 4.5 -100.5t28.5 -101.5t58 -78t94 -30q52 0 88.5 26.5t59.5 68.5t35 91t14 95q3 69 -6 127t-32 100.5t-60 65.5t-89 22z" />
    <glyph glyph-name="P" horiz-adv-x="632" 
d="M354 702q88 1 151.5 -23t96 -74t25.5 -130q-3 -40 -22.5 -78.5t-56 -70t-90 -51.5t-124.5 -22q-22 -1 -38.5 -1t-33.5 1l-5 -88q-1 -28 -3.5 -53t-4.5 -38q11 1 28 1.5t33 1t23 0.5l-3 -77h-295l4 66q22 1 38 6t25.5 23t11.5 58l20 383q2 27 4.5 52t4.5 38
q-16 -1 -40 -1.5t-35 -1.5l4 77q71 1 141.5 1t140.5 1zM349 632q-21 0 -36.5 -5t-24.5 -22t-11 -52l-11 -225l22 -2t23 -1q55 0 90.5 18.5t53.5 54t21 86.5q2 50 -10 80t-32.5 44.5t-43 19t-41.5 4.5z" />
    <glyph glyph-name="S" horiz-adv-x="600" 
d="M291 -16q-39 0 -85.5 12.5t-84.5 36.5v-42h-77l12 234h66q6 -56 30 -93.5t62 -56.5t84 -19q36 0 63.5 13t44 34.5t17.5 46.5q2 35 -21 58.5t-59 40t-73 31.5q-63 26 -113 58t-77 77t-24 110q2 31 15.5 64.5t42 62t74.5 46.5t112 18q40 0 87 -12t78 -36v41h77l-12 -233
h-66q-6 56 -27 93.5t-55.5 56.5t-81.5 18q-43 0 -76.5 -24t-35.5 -62q-1 -31 15 -54.5t50.5 -44t88.5 -42.5q37 -15 76 -35t71.5 -47t52 -63.5t17.5 -85.5q-3 -59 -37.5 -105t-93.5 -71.5t-137 -25.5z" />
    <glyph glyph-name="T" horiz-adv-x="648" 
d="M650 700l-6 -226h-66q3 54 -10.5 89.5t-40 53t-64.5 16.5h-48l-24 -469q-1 -27 -4 -52t-5 -38q11 1 27 1.5t31 1t22 0.5l-4 -77h-290l4 66q23 1 39 6t25.5 23t11.5 58l25 479h-46q-57 -1 -92.5 -39t-39.5 -119h-66l17 226h604z" />
    <glyph glyph-name="X" horiz-adv-x="700" 
d="M21 0l4 66q29 7 59.5 32.5t69.5 74.5l125 155q-37 51 -75 102l-76 102q-16 21 -30.5 45t-24.5 49q-16 -1 -22.5 -1.5t-17.5 -1.5l4 77h302l-4 -66q-36 0 -50.5 -9t-12 -24.5t16.5 -34.5l82 -113l82 105q23 29 36 42.5t26 26.5q-16 -1 -40 -2t-35 -2l4 77h228l-4 -66
q-23 -3 -46 -16t-47.5 -36.5t-53.5 -60.5l-103 -131l176 -240q16 -21 29.5 -40t20.5 -36q17 2 22.5 2.5t16.5 0.5l-4 -77h-297l4 66q37 0 49 9t7 24.5t-20 34.5l-95 129l-94 -121q-22 -28 -34 -42t-25 -27q17 2 39 3t33 1l-4 -77h-221z" />
    <glyph glyph-name="grave" horiz-adv-x="277" 
d="M184 565l-114 107q-12 13 -19.5 30.5t-5 35.5t18.5 32q17 13 34 12.5t32 -10t24 -26.5l78 -140z" />
    <glyph glyph-name="a" horiz-adv-x="549" 
d="M327 511q28 0 65.5 -5.5t78.5 -15.5q-5 -37 -13 -91t-15.5 -110.5t-12.5 -104t-5 -73.5q0 -18 4.5 -23.5t9.5 -5.5q12 0 25 17t26 62l54 -16q-4 -21 -14 -48t-26.5 -51.5t-41 -40.5t-57.5 -16q-32 0 -56 19t-24 72q0 13 1 29t3 29h-1q-18 -43 -38.5 -72t-42 -46t-44 -24
t-45.5 -7q-55 0 -94 44.5t-39 137.5q0 69 20 130t59 108.5t95 74.5t128 27zM290 445q-28 0 -51.5 -18t-41 -53t-26.5 -87t-9 -121q0 -41 10 -64.5t28 -23.5q22 0 41 22.5t34.5 61t27 86t19 97t9.5 94.5q-5 2 -17.5 4t-23.5 2z" />
    <glyph glyph-name="c" horiz-adv-x="467" 
d="M273 511q46 0 82.5 -15t58 -41.5t21.5 -63.5q0 -30 -17.5 -49t-46.5 -20q-34 -1 -48 20.5t-14 38.5q0 9 2.5 20.5t7.5 21.5q-4 9 -17 15.5t-31 6.5q-32 0 -52.5 -21.5t-32 -54.5t-16.5 -69.5t-6 -66.5q-2 -54 10 -87t32 -48t41 -17q19 -1 43 5.5t49 29t45 69.5l57 -28
q-28 -65 -63 -101.5t-74 -51t-81 -15.5q-88 1 -142 54t-54 164q0 48 15 101t45.5 99t76.5 75t109 29z" />
    <glyph glyph-name="e" horiz-adv-x="470" 
d="M280 511q44 0 78 -13t53 -41t19 -72q0 -41 -24.5 -69.5t-64 -46.5t-86.5 -29.5t-91 -17.5q0 -57 13.5 -87.5t34.5 -42t42 -11.5q17 0 40.5 6.5t47.5 27.5t42 62l56 -27q-28 -65 -63 -100t-73 -48t-77 -13q-92 -1 -146 53t-54 165q0 48 15 101t45.5 99t78.5 75t114 29z
M269 445q-34 0 -55 -24t-32 -60.5t-15 -73.5q54 10 86 27t46.5 39t13.5 46q-1 25 -15 35.5t-29 10.5z" />
    <glyph glyph-name="g" horiz-adv-x="520" 
d="M182 -271q-37 0 -67 6.5t-51.5 19.5t-33 32.5t-11.5 44.5q0 15 7 32t21.5 29t38.5 12q27 0 45 -17t18 -46q0 -16 -6 -30q5 -7 21 -12t27 -5q40 0 62 22.5t32.5 61.5t16.5 88q7 53 14.5 92t19.5 79h-1q-19 -44 -39 -73t-41.5 -45.5t-44 -23.5t-45.5 -7q-36 0 -67.5 19.5
t-51 60t-19.5 102.5q0 69 16.5 130.5t52 108.5t90.5 74t131 27q28 0 70.5 -5.5t82.5 -15.5q-2 -36 -5.5 -93.5t-8 -123.5t-9.5 -127.5t-9 -105.5q-8 -94 -35.5 -164t-81 -108.5t-139.5 -38.5zM206 78q22 0 41 22.5t34.5 61t27.5 86t20 97t10 94.5q-6 2 -19.5 4t-26.5 2
q-34 0 -59 -18.5t-40.5 -54.5t-23 -87.5t-7.5 -118.5q0 -27 5.5 -47t15.5 -30.5t22 -10.5z" />
    <glyph glyph-name="i" horiz-adv-x="344" 
d="M156 511q52 0 72.5 -31.5t20.5 -84.5q0 -24 -5 -65t-11 -86t-11 -82t-5 -54q0 -16 5 -21t10 -5q12 0 24 17t25 62l54 -16q-4 -21 -15.5 -48t-30.5 -51.5t-45.5 -40.5t-60.5 -16q-55 0 -75.5 30t-20.5 83q0 29 5 69t11.5 82t11.5 78.5t5 60.5q0 17 -5 21.5t-11 4.5
q-11 0 -23 -17t-25 -62l-54 16q4 21 16 48t31.5 51.5t46 40.5t60.5 16zM191 763q33 0 53.5 -24t18.5 -59q-1 -34 -23 -57.5t-55 -23.5q-34 0 -54.5 23.5t-19.5 57.5q2 35 26 59t54 24z" />
    <glyph glyph-name="j" horiz-adv-x="313" 
d="M157 511q52 0 74 -31.5t23 -84.5q1 -51 -2 -121.5t-9 -139.5q-5 -53 -14 -109.5t-26 -109t-45 -94.5t-69 -67t-99 -25q-46 0 -72 20.5t-26 53.5q0 12 6 27t20 26t37 10q22 -1 38.5 -19.5t10.5 -49.5q4 -2 15 -2q17 0 30.5 20.5t23.5 54t17.5 73t12.5 79t8 72t4 51.5
q5 66 7.5 133.5t2.5 113.5q0 17 -5 21.5t-10 4.5q-11 0 -23 -17t-25 -62l-55 16q5 21 16 48t29.5 51.5t44.5 40.5t60 16zM196 763q33 0 53.5 -24t18.5 -59q-1 -34 -23 -57.5t-56 -23.5t-54 23.5t-19 57.5q2 35 26 59t54 24z" />
    <glyph glyph-name="k" horiz-adv-x="518" 
d="M370 -11q-44 0 -72 28t-55 101q-10 27 -18 48t-19 28q-4 3 -8.5 4.5t-9.5 -0.5q-6 -28 -9 -66.5t-3 -64.5q0 -13 1 -33t2 -34h-130q-2 21 -2.5 30t-0.5 19q0 11 1.5 45.5t4.5 85.5t8 113.5t11.5 130.5t15.5 135q2 20 6.5 45.5t8.5 47.5q-16 -1 -38.5 -1.5t-33.5 -1.5
l4 76q47 0 78 5t49.5 12t25.5 13h54q-5 -36 -10.5 -74.5t-10.5 -78t-10 -81.5q-4 -41 -9.5 -72t-10.5 -58h1q22 44 49.5 70.5t56 38t54.5 11.5q37 0 61 -13t35.5 -36.5t11.5 -56.5q0 -30 -17.5 -67t-59 -69t-113.5 -47v-1q42 -1 60.5 -21.5t26.5 -41.5q10 -21 17.5 -37
t15 -24.5t15.5 -8.5q11 0 21.5 15t21.5 54l54 -17q-7 -36 -24.5 -70.5t-44 -57.5t-62.5 -23zM195 262q74 0 109 37.5t35 101.5q0 13 -2.5 23t-8.5 15.5t-15 5.5q-16 0 -39.5 -21t-45 -62t-33.5 -100z" />
    <glyph glyph-name="m" horiz-adv-x="878" 
d="M721 -11q-55 0 -74.5 30t-19.5 83q0 30 4 67.5t8.5 76.5t8.5 73.5t4 57.5q0 15 -2.5 24.5t-8.5 13.5t-17 4q-18 0 -37 -21.5t-36.5 -58t-31 -81.5t-21.5 -92t-8 -89q0 -13 1 -35.5t2 -41.5h-129q-2 21 -2.5 39.5t-0.5 27.5q0 43 3.5 87.5t8 87t8 77.5t3.5 58t-6.5 32.5
t-21.5 9.5q-18 0 -37.5 -22t-37.5 -59.5t-32.5 -83t-23 -93t-8.5 -89.5q0 -13 1 -36.5t2 -35.5h-128q-2 21 -2.5 29.5t-0.5 18.5q0 20 2 46.5t6 58t8 62.5q3 29 6.5 56t6.5 51t5 42t2 28q0 17 -4.5 21.5t-9.5 4.5q-11 0 -23 -17t-25 -62l-55 16q5 21 14 48t25 51.5t39 40.5
t56 16q22 0 41 -8t31 -27.5t12 -55.5q0 -19 -2 -31t-4 -29h1q24 60 53.5 93t61 45.5t59.5 12.5q33 0 54.5 -13.5t32.5 -39.5t11 -62v-17t-2 -19h1q24 60 51.5 93t57.5 45.5t58 12.5q43 0 69.5 -19t39 -53.5t12.5 -81.5q0 -36 -6 -80t-12.5 -88t-6.5 -81q0 -16 5 -21t10 -5
q11 0 23 17t25 62l55 -16q-4 -21 -16 -48t-30.5 -51.5t-45 -40.5t-60.5 -16z" />
    <glyph glyph-name="n" horiz-adv-x="610" 
d="M453 -11q-55 0 -74.5 30t-19.5 83q0 30 4 67.5t8.5 76.5t8.5 73.5t4 57.5q0 15 -3 24.5t-9 13.5t-16 4q-18 0 -37.5 -22t-37.5 -59.5t-32 -83t-22.5 -93t-8.5 -89.5q0 -13 1 -36.5t2 -35.5h-129q-2 21 -2.5 29.5t-0.5 18.5q0 21 2.5 49.5t6.5 62t8 66.5q3 27 6.5 52.5
t6.5 48t4.5 39.5t1.5 26q0 17 -4.5 21.5t-9.5 4.5q-11 0 -23 -17t-25 -62l-55 16q5 21 14 48t25 51.5t39 40.5t56 16q22 0 41 -8t31 -27.5t12 -55.5q0 -19 -2 -31t-4 -29h1q24 60 52.5 93t59 45.5t59.5 12.5q43 0 69 -19t38.5 -53.5t12.5 -81.5q0 -36 -6 -80t-12.5 -88
t-6.5 -81q0 -16 5 -21t10 -5q11 0 23 17t25 62l54 -16q-4 -21 -15.5 -48t-30.5 -51.5t-45 -40.5t-60 -16z" />
    <glyph glyph-name="o" horiz-adv-x="515" 
d="M279 511q56 0 101.5 -26t72.5 -76t27 -121q0 -79 -30.5 -147.5t-86.5 -110t-134 -41.5q-67 0 -112 30.5t-67 82.5t-22 114q0 80 30.5 147t87 107.5t133.5 40.5zM264 445q-30 1 -52.5 -26.5t-35 -73.5t-12.5 -101q0 -30 3.5 -63t13 -61.5t25 -46.5t39.5 -18q26 0 44 20
t29.5 51.5t17 66.5t6.5 66q1 27 -2 59t-11 61t-24 47.5t-41 18.5z" />
    <glyph glyph-name="p" horiz-adv-x="575" 
d="M28 -255v65q25 0 37.5 11.5t18 32t7.5 46.5q11 117 18 202.5t10.5 143.5t5 92.5t1.5 50.5q0 18 -4.5 23.5t-10.5 5.5q-11 0 -23 -17t-25 -62l-54 16q4 21 13 48t25 51.5t39.5 40.5t56.5 16q32 0 57 -19t25 -72q0 -19 -1 -31t-3 -29h1q24 60 53.5 93t60.5 45.5t57 12.5
q48 0 81 -24t50 -67t17 -100q0 -95 -30.5 -170t-93 -118t-158.5 -43h-14.5t-17.5 1q-2 -48 -4 -80.5t-4 -54t-4 -37.5q16 2 36 2.5t30 0.5v-76h-253zM271 55q34 0 57.5 19.5t38.5 50.5t23.5 67t11.5 69.5t3 57.5q0 37 -6 59t-17 32t-26 10q-20 0 -37.5 -16t-32 -48
t-25.5 -79t-19 -109q-3 -25 -6 -51.5t-5 -55.5q11 -3 22.5 -4.5t17.5 -1.5z" />
    <glyph glyph-name="s" horiz-adv-x="446" 
d="M200 -11q-48 0 -88.5 14t-65.5 40.5t-25 61.5q0 31 18.5 50.5t45.5 19.5t44 -18t17 -44q0 -7 -1.5 -14.5t-4.5 -15.5q5 -10 26.5 -19t36.5 -9q44 0 61.5 19t17.5 43q0 19 -14.5 33.5t-37.5 28.5t-49 29q-47 27 -78 50t-45.5 48.5t-14.5 60.5t22 68t64.5 54.5t103.5 21.5
q40 0 78.5 -13t64 -37.5t25.5 -59.5q0 -26 -17 -46t-46 -20q-27 0 -43.5 18.5t-16.5 42.5q0 8 1.5 15t4.5 14q-8 11 -24.5 15.5t-30.5 4.5t-29.5 -6t-26.5 -17.5t-11 -28.5q0 -14 6.5 -24.5t26.5 -24t60 -37.5q33 -19 67.5 -41t58 -51.5t23.5 -71.5q0 -45 -27 -80t-73 -54.5
t-104 -19.5z" />
    <glyph glyph-name="u" horiz-adv-x="598" 
d="M211 -11q-42 0 -68.5 19t-39 53.5t-12.5 81.5q0 37 6.5 81l13 88t6.5 80q0 17 -5.5 21.5t-10.5 4.5q-11 0 -23 -17t-25 -62l-54 16q4 21 15.5 48t30.5 51.5t45 40.5t60 16q56 0 75.5 -30t19.5 -83q0 -30 -4 -67.5t-9 -76.5t-9 -73.5t-4 -57.5q0 -15 3 -24.5t9 -13.5
t16 -4q17 0 35.5 22t35.5 59.5t31 83t22.5 93t8.5 89.5q0 14 -0.5 37t-2.5 35h129q2 -21 2.5 -29.5t0.5 -18.5q0 -21 -2.5 -50.5t-6.5 -63.5t-9 -68q-3 -27 -6.5 -52t-6.5 -46.5t-4.5 -38t-1.5 -25.5q0 -16 4.5 -21t9.5 -5q11 0 23 17t25 62l54 -16q-4 -21 -13 -48
t-25 -51.5t-39 -40.5t-56 -16q-32 0 -58 19t-26 72q0 20 2 34t3 31h-1q-23 -60 -50 -94t-56 -48t-58 -14z" />
    <glyph glyph-name="x" horiz-adv-x="543" 
d="M96 -11q-37 0 -58.5 19t-21.5 50t19 50.5t44 19.5q24 0 38 -11.5t18 -25.5q15 10 31.5 48t41.5 112q-16 42 -25.5 73t-22.5 60q-10 21 -17.5 27t-17.5 7q-13 1 -25.5 -14.5t-17.5 -60.5l-56 8q2 22 10.5 49t25 52.5t44 42t67.5 16.5q41 0 62.5 -24t35.5 -63
q6 -15 10.5 -27.5t11.5 -40.5q21 54 40.5 85t37 46t33 19.5t28.5 4.5q36 0 53 -19.5t17 -48.5q0 -25 -18.5 -44t-44.5 -19q-18 0 -29.5 6.5t-18.5 14.5q-9 -7 -18 -20.5t-21 -38.5t-30 -68q10 -28 23 -61t27.5 -63t28.5 -49t26 -19q14 0 23.5 14.5t14.5 60.5l56 -8
q-2 -22 -9 -49t-22 -52.5t-41 -42t-66 -16.5q-25 0 -43 8t-33 27t-31 52.5t-38 84.5h-1q-19 -56 -37 -90.5t-35 -52t-34.5 -23.5t-34.5 -6z" />
    <glyph glyph-name="y" horiz-adv-x="561" 
d="M123 -271q-46 0 -70.5 22t-24.5 56q0 32 20.5 51t43.5 19q53 0 61 -54q2 -1 5 -1h5q17 0 35.5 13t35.5 32t30.5 38.5t19.5 33.5q-7 48 -23 103.5t-36.5 113t-42.5 111t-41 97.5q-7 16 -18.5 35t-28.5 19q-13 0 -26.5 -14t-18.5 -61l-56 8q2 22 10.5 49t26 52.5t45 42
t67.5 16.5q33 0 56.5 -15.5t40 -39.5t26.5 -49q14 -34 34 -88t38.5 -117.5t29.5 -128.5h1q21 46 35 89t22.5 82t10.5 72q1 11 0 34.5t-12 35.5q-4 -1 -7 -1h-7q-25 0 -43 17t-18 41q0 35 22 51.5t47 16.5q37 0 59.5 -21t32.5 -53t10 -66q0 -43 -14 -104t-39.5 -129.5
t-59.5 -135.5q-38 -73 -84 -135.5t-97 -100t-103 -37.5z" />
    <glyph glyph-name="dieresis" horiz-adv-x="415" 
d="M290 600q-26 0 -43.5 20t-17.5 50q0 33 21 57t49 24q27 0 43.5 -20.5t16.5 -49.5q0 -34 -20 -57.5t-49 -23.5zM116 600q-26 0 -43.5 20t-17.5 50q0 33 21 57t49 24q27 0 43.5 -20.5t16.5 -49.5q0 -34 -20 -57.5t-49 -23.5z" />
    <glyph glyph-name="macron" horiz-adv-x="378" 
d="M45 629l4 93h284l-4 -90z" />
    <glyph glyph-name="acute" horiz-adv-x="292" 
d="M89 565l-44 41l89 140q11 17 28 27t35 10t32 -13q16 -14 17.5 -32.5t-7 -36.5t-23.5 -30z" />
    <glyph glyph-name="ordmasculine" horiz-adv-x="368" 
d="M217 716q56 0 96.5 -40t40.5 -112q0 -51 -20.5 -97t-58.5 -74.5t-90 -28.5q-46 0 -76.5 21.5t-46 57t-15.5 77.5q0 53 21 97.5t59.5 71.5t89.5 27zM209 666q-25 0 -41 -38t-16 -98q0 -34 4 -59.5t13.5 -39.5t23.5 -14q19 0 31 18.5t18.5 48.5t6.5 66q0 37 -4 62.5
t-12.5 39.5t-23.5 14z" />
    <glyph glyph-name="Edieresis" horiz-adv-x="623" 
d="M570 700l-5 -194h-65q3 55 -15 83t-45.5 37.5t-54.5 8.5l-36 -1q-21 0 -36.5 -5.5t-24.5 -24t-11 -57.5l-7 -150h117v29.5v30.5v27h77l-12 -243h-66q2 42 -10.5 60.5t-34.5 23.5t-49 4l-26 -1l-9 -164q-1 -27 -3.5 -51t-4.5 -37h134q30 0 58.5 13.5t48 45t22.5 85.5h66
l-17 -220h-526l4 66q22 1 38 6t25.5 23t11.5 58l20 383q2 27 4.5 52t4.5 38q-16 -1 -40 -1.5t-35 -1.5l4 77h498zM261 797q-25 0 -42.5 20.5t-17.5 50.5q0 33 21 57t49 24q26 0 42.5 -21t16.5 -50q0 -32 -20 -56.5t-49 -24.5zM436 797q-26 0 -43 20.5t-17 50.5q0 33 20.5 57
t48.5 24q27 0 43 -21t16 -50q0 -33 -19.5 -57t-48.5 -24z" />
    <glyph glyph-name="edieresis" horiz-adv-x="470" 
d="M280 511q44 0 78 -13t53 -41t19 -72q0 -41 -24.5 -69.5t-64 -46.5t-86.5 -29.5t-91 -17.5q0 -57 13.5 -87.5t34.5 -42t42 -11.5q17 0 40.5 6.5t47.5 27.5t42 62l56 -27q-28 -65 -63 -100t-73 -48t-77 -13q-92 -1 -146 53t-54 165q0 48 15 101t45.5 99t78.5 75t114 29z
M269 445q-34 0 -55 -24t-32 -60.5t-15 -73.5q54 10 86 27t46.5 39t13.5 46q-1 25 -15 35.5t-29 10.5zM346 600q-26 0 -43.5 20t-17.5 50q0 33 21 57t49 24q27 0 43.5 -20.5t16.5 -49.5q0 -34 -20 -57.5t-49 -23.5zM172 600q-26 0 -43.5 20t-17.5 50q0 33 21 57t49 24
q27 0 43.5 -20.5t16.5 -49.5q0 -34 -20 -57.5t-49 -23.5z" />
    <glyph glyph-name="dotlessi" horiz-adv-x="344" 
d="M156 511q52 0 72.5 -31.5t20.5 -84.5q0 -24 -5 -65t-11 -86t-11 -82t-5 -54q0 -16 5 -21t10 -5q12 0 24 17t25 62l54 -16q-4 -21 -15.5 -48t-30.5 -51.5t-45.5 -40.5t-60.5 -16q-55 0 -75.5 30t-20.5 83q0 29 5 69t11.5 82t11.5 78.5t5 60.5q0 17 -5 21.5t-11 4.5
q-11 0 -23 -17t-25 -62l-54 16q4 21 16 48t31.5 51.5t46 40.5t60.5 16z" />
    <glyph glyph-name="acutecomb" 
d="M89 565l-44 41l89 140q11 17 28 27t35 10t32 -13q16 -14 17.5 -32.5t-7 -36.5t-23.5 -30z" />
    <glyph glyph-name="uni0304" 
d="M45 629l4 93h284l-4 -90z" />
    <glyph glyph-name="uni0400" unicode="&#x400;" horiz-adv-x="623" 
d="M570 700l-5 -194h-65q3 55 -15 83t-45.5 37.5t-54.5 8.5l-36 -1q-21 0 -36.5 -5.5t-24.5 -24t-11 -57.5l-7 -150h117v29.5v30.5v27h77l-12 -243h-66q2 42 -10.5 60.5t-34.5 23.5t-49 4l-26 -1l-9 -164q-1 -27 -3.5 -51t-4.5 -37h134q30 0 58.5 13.5t48 45t22.5 85.5h66
l-17 -220h-526l4 66q22 1 38 6t25.5 23t11.5 58l20 383q2 27 4.5 52t4.5 38q-16 -1 -40 -1.5t-35 -1.5l4 77h498zM380 765l-114 107q-12 13 -19.5 30.5t-5 35.5t18.5 32q17 13 34 12.5t32 -10t24 -26.5l78 -140z" />
    <glyph glyph-name="uni0401" unicode="&#x401;" horiz-adv-x="623" 
d="M570 700l-5 -194h-65q3 55 -15 83t-45.5 37.5t-54.5 8.5l-36 -1q-21 0 -36.5 -5.5t-24.5 -24t-11 -57.5l-7 -150h117v29.5v30.5v27h77l-12 -243h-66q2 42 -10.5 60.5t-34.5 23.5t-49 4l-26 -1l-9 -164q-1 -27 -3.5 -51t-4.5 -37h134q30 0 58.5 13.5t48 45t22.5 85.5h66
l-17 -220h-526l4 66q22 1 38 6t25.5 23t11.5 58l20 383q2 27 4.5 52t4.5 38q-16 -1 -40 -1.5t-35 -1.5l4 77h498zM261 797q-25 0 -42.5 20.5t-17.5 50.5q0 33 21 57t49 24q26 0 42.5 -21t16.5 -50q0 -32 -20 -56.5t-49 -24.5zM436 797q-26 0 -43 20.5t-17 50.5q0 33 20.5 57
t48.5 24q27 0 43 -21t16 -50q0 -33 -19.5 -57t-48.5 -24z" />
    <glyph glyph-name="uni0402" unicode="&#x402;" horiz-adv-x="803" 
d="M569 423q75 0 120 -27t65 -72.5t17 -103.5q-2 -62 -23.5 -116t-64.5 -86.5t-112 -32.5q-20 0 -59 4t-72 17l21 65q34 -13 67 -13q39 0 60 43.5t25 113.5q5 76 -22 103t-75 27q-34 0 -64 -6.5t-51 -14.5l-8 -160q-1 -27 -3.5 -52t-5.5 -38q11 1 21 1.5t20 1.5l-5 -77h-252
l4 66q23 1 39 6t25.5 23t11.5 58l25 479h-46q-57 -1 -92 -39t-40 -119h-66l17 226h606l-4 -200h-66q3 45 -11 74.5t-41 44.5t-65 14h-48l-12 -235q38 13 85 19t79 6z" />
    <glyph glyph-name="uni0403" unicode="&#x403;" horiz-adv-x="566" 
d="M35 0l4 66q22 1 38 6t25.5 23t11.5 58l20 383q2 27 4.5 52t4.5 38q-16 -1 -40 -1.5t-35 -1.5l4 77h498l-5 -194h-65q3 55 -15 83t-45.5 37.5t-54.5 8.5l-36 -1q-21 0 -36.5 -5.5t-24.5 -24t-11 -57.5l-20 -383q-1 -27 -3.5 -52t-4.5 -38q11 1 29 1.5t35 1t24 0.5l-4 -77
h-298zM276 770l-34 48l122 118q15 14 33 21.5t35.5 5t28.5 -19.5q12 -17 9 -34t-15 -31t-29 -24z" />
    <glyph glyph-name="uni0404" unicode="&#x404;" horiz-adv-x="692" 
d="M364 -16q-77 0 -138.5 27.5t-104.5 76t-64 113t-17 139.5q4 68 29.5 135t72 121.5t114 87t154.5 32.5q39 0 84.5 -12.5t84.5 -36.5h1l-1 42h77l-12 -233h-66q-9 83 -49 127.5t-110 44.5q-52 0 -94 -24t-72 -65.5t-46.5 -93t-19.5 -105.5q-5 -86 19 -153.5t72 -106.5
t115 -40q60 -1 125 28.5t116 95.5l39 -40q-52 -67 -107.5 -101.5t-107.5 -46.5t-94 -12zM441 241q3 42 -9.5 60.5t-34.5 23t-49 4.5l-173 -1l4 69h264v29.5v30.5v27h77l-13 -243h-66z" />
    <glyph glyph-name="uni0405" unicode="&#x405;" horiz-adv-x="600" 
d="M291 -16q-39 0 -85.5 12.5t-84.5 36.5v-42h-77l12 234h66q6 -56 30 -93.5t62 -56.5t84 -19q36 0 63.5 13t44 34.5t17.5 46.5q2 35 -21 58.5t-59 40t-73 31.5q-63 26 -113 58t-77 77t-24 110q2 31 15.5 64.5t42 62t74.5 46.5t112 18q40 0 87 -12t78 -36v41h77l-12 -233
h-66q-6 56 -27 93.5t-55.5 56.5t-81.5 18q-43 0 -76.5 -24t-35.5 -62q-1 -31 15 -54.5t50.5 -44t88.5 -42.5q37 -15 76 -35t71.5 -47t52 -63.5t17.5 -85.5q-3 -59 -37.5 -105t-93.5 -71.5t-137 -25.5z" />
    <glyph glyph-name="uni0406" unicode="&#x406;" horiz-adv-x="384" 
d="M356 700l-3 -66q-22 -1 -38.5 -6t-26 -22.5t-11.5 -58.5l-20 -383q-1 -27 -3.5 -52t-4.5 -38q16 2 40.5 2.5t34.5 0.5l-4 -77h-285l4 66q22 1 38 6t25.5 23t11.5 58l20 383q2 27 4.5 52t4.5 38q-16 -1 -40 -1.5t-35 -1.5l4 77h284z" />
    <glyph glyph-name="uni0407" unicode="&#x407;" horiz-adv-x="384" 
d="M356 700l-3 -66q-22 -1 -38.5 -6t-26 -22.5t-11.5 -58.5l-20 -383q-1 -27 -3.5 -52t-4.5 -38q16 2 40.5 2.5t34.5 0.5l-4 -77h-285l4 66q22 1 38 6t25.5 23t11.5 58l20 383q2 27 4.5 52t4.5 38q-16 -1 -40 -1.5t-35 -1.5l4 77h284zM309 800q-26 0 -43.5 20t-17.5 50
q0 33 21 57t49 24q27 0 43.5 -20.5t16.5 -49.5q0 -34 -20 -57.5t-49 -23.5zM135 800q-26 0 -43.5 20t-17.5 50q0 33 21 57t49 24q27 0 43.5 -20.5t16.5 -49.5q0 -34 -20 -57.5t-49 -23.5z" />
    <glyph glyph-name="uni0408" unicode="&#x408;" horiz-adv-x="445" 
d="M440 700l-3 -66q-22 -1 -38.5 -6t-26 -22.5t-11.5 -58.5l-15 -293q-5 -96 -32 -155.5t-74 -87t-115 -27.5q-39 0 -70.5 14t-49.5 38t-16 55q2 32 20.5 57t52.5 26q38 2 53 -18.5t15 -46.5q0 -8 -2.5 -18t-7.5 -19q4 -10 14 -13t15 -3q15 0 25 8t16 25.5t7 45.5l21 401
q2 27 4.5 52t4.5 38q-10 0 -26.5 -0.5t-31.5 -1t-22 -1.5l4 77h289z" />
    <glyph glyph-name="uni0409" unicode="&#x409;" horiz-adv-x="1039" 
d="M113 -11q-43 0 -74 22.5t-31 61.5q0 36 19 62t58 26q30 0 49.5 -17.5t19.5 -42.5q0 -5 -1 -11t-4 -12q5 -3 15 -3q28 0 52 41t42.5 115.5t31 175t18.5 219.5l-117 -3l4 77h554l-4 -66q-22 -1 -38 -6t-25.5 -22.5t-11.5 -58.5l-8 -140l36 2q90 3 148.5 -14t91.5 -48
t46 -69.5t11 -78.5q-3 -65 -37.5 -109.5t-90.5 -67t-126 -22.5h-316l4 66q23 1 39 6t25.5 23t11.5 58l21 402q1 17 2.5 33.5t5.5 32.5l-82 1q-34 1 -51 -12.5t-19 -46.5q-7 -159 -31 -269t-61 -177t-82 -97.5t-95 -30.5zM641 71h24.5t24.5 0.5t24 0.5q61 3 90.5 39.5
t33.5 95.5q3 50 -12.5 78.5t-44 40.5t-65.5 11q-14 0 -28.5 -0.5t-28.5 -0.5l-10 -177q-1 -27 -3.5 -51t-4.5 -37z" />
    <glyph glyph-name="uni040A" unicode="&#x40a;" horiz-adv-x="1064" 
d="M35 0l4 66q22 1 38 6t25.5 23t11.5 58l20 383q2 27 4.5 52t4.5 38l-75 -3l4 77h284l-3 -66q-22 -1 -38.5 -6t-25.5 -22.5t-12 -58.5l-8 -145h275l-3 -76l-276 -3l-8 -159q-1 -27 -3.5 -52t-4.5 -38l75 3l-4 -77h-285zM450 0l4 66q23 1 39 6t25.5 23t11.5 58l20 383
q2 27 4 52t5 38q-16 -1 -40.5 -1.5t-35.5 -1.5l4 77h287l-3 -66q-22 -1 -38.5 -6t-26 -22.5t-11.5 -58.5l-8 -140l36 2q90 3 148.5 -14t91.5 -48t46 -69.5t11 -78.5q-3 -65 -37.5 -109.5t-90.5 -67t-126 -22.5h-316zM666 71h24.5t24.5 0.5t24 0.5q62 3 91 39.5t33 95.5
q3 50 -12.5 78.5t-44 40.5t-65.5 11q-14 0 -28.5 -0.5t-28.5 -0.5l-9 -177q-1 -27 -4 -51t-5 -37z" />
    <glyph glyph-name="uni040B" unicode="&#x40b;" horiz-adv-x="887" 
d="M560 0l3 66q23 1 38.5 6t25 23t12.5 58l5 63q2 61 -25.5 90t-86.5 29q-40 0 -77.5 -10.5t-58.5 -25.5l4 73q38 23 90 39.5t111 16.5q94 0 141.5 -51t42.5 -163q-1 -29 -3.5 -57.5t-4.5 -50.5t-4 -32l76 3l-5 -77h-284zM650 700l-6 -226h-66q3 54 -10.5 89.5t-40 53
t-64.5 16.5h-48l-24 -469q-1 -27 -4 -52t-5 -38q11 1 27 1.5t31 1t22 0.5l-4 -77h-290l4 66q23 1 39 6t25.5 23t11.5 58l25 479h-46q-57 -1 -92.5 -39t-39.5 -119h-66l17 226h604z" />
    <glyph glyph-name="uni040C" unicode="&#x40c;" horiz-adv-x="711" 
d="M35 0l4 66q22 1 38 6t25.5 23t11.5 58l20 383q2 27 4.5 52t4.5 38q-16 -1 -40 -1.5t-35 -1.5l4 77h284l-3 -66q-22 -1 -38.5 -6t-26 -22.5t-11.5 -58.5l-8 -152h73l83 131q20 30 40.5 60t33.5 41q-16 -1 -34 -2t-29 -2l3 77h245l-3 -66q-22 -1 -48 -8t-54 -28t-58 -66
l-104 -154q19 -13 34 -27.5t25 -31.5l94 -145q19 -28 39.5 -52.5t42.5 -39.5t44 -16l-4 -66h-152q-8 1 -25.5 18t-36 41t-31.5 43l-91 144q-13 19 -27.5 39t-27.5 30h-14h-22l-8 -151q-1 -27 -3.5 -52t-4.5 -38q16 2 40.5 2.5t34.5 0.5l-4 -77h-285zM349 770l-34 48l122 118
q15 14 33 21.5t35.5 5t28.5 -19.5q12 -17 9 -34t-15 -31t-29 -24z" />
    <glyph glyph-name="uni040D" unicode="&#x40d;" horiz-adv-x="772" 
d="M163 29l-49 51l533 590l45 -48zM35 0l4 66q23 1 39 6t25.5 23t11.5 58l20 383q2 27 4 52t5 38l-76 -3l4 77h283l-3 -66q-22 -1 -38.5 -6t-26 -22.5t-11.5 -58.5l-20 -383q-1 -27 -4 -52t-5 -38l76 3l-5 -77h-283zM463 0l4 66q23 1 39 6t25.5 23t11.5 58l20 383q2 27 4 52
t5 38l-76 -3l4 77h286l-4 -66q-22 -1 -38.5 -6t-26 -22.5t-11.5 -58.5l-20 -383q-1 -27 -3.5 -52t-5.5 -38l76 3l-4 -77h-286zM489 770l-141 84q-15 10 -26 24.5t-12 31.5t12 33q13 17 30.5 19.5t35.5 -5t31 -21.5l109 -117z" />
    <glyph glyph-name="uni040E" unicode="&#x40e;" horiz-adv-x="639" 
d="M163 -16q-48 0 -77.5 27.5t-27.5 71.5q2 31 21 57t59 26q34 0 51 -18.5t15 -43.5q-2 -23 -18 -44q2 -3 5 -5t9 -2q14 0 29 12.5t33.5 39.5t42.5 71l-197 355q-12 23 -23 51t-10 44l-48 -3l4 77h289l-3 -66q-29 2 -48 -5.5t-24 -25.5t9 -46l71 -142q19 -38 28.5 -62.5
t13.5 -45.5h4l101 228q11 28 27.5 52t29.5 40l-77 -4l4 77h221l-3 -66q-23 -3 -44 -14t-39.5 -33t-36.5 -60l-174 -357q-35 -72 -73 -112.5t-74.5 -57t-69.5 -16.5zM357 758q-34 0 -65.5 11t-51 32.5t-16.5 52.5q3 29 22 43t40 15q22 1 34 -8.5t17 -22t5 -22.5
q-1 -6 -3.5 -15.5t-10.5 -18.5q9 -7 22.5 -10.5t27.5 -3.5q15 0 30 3.5t26 10.5q15 10 26.5 27t25.5 42l53 -38q-37 -49 -83.5 -73.5t-98.5 -24.5z" />
    <glyph glyph-name="uni040F" unicode="&#x40f;" horiz-adv-x="789" 
d="M348 -158q5 78 -7 118t-51 40l4 72l139 6l-13 -236h-72zM762 700l-4 -66q-22 -1 -38 -6t-25.5 -22.5t-11.5 -58.5l-20 -383q-1 -27 -4 -52t-5 -38q16 1 40.5 1.5t34.5 1.5l-4 -77h-690l4 66q23 1 39 6t25 23t11 58l20 383q2 27 4.5 52t4.5 38q-16 -1 -40 -2t-35 -1l4 77
h285l-4 -66q-22 -1 -38.5 -6t-26 -22.5t-11.5 -58.5l-17 -369q-1 -25 -2.5 -51t-6.5 -52l206 3q26 0 42.5 14.5t20.5 61.5l20 382q2 27 4 52t4 38q-16 -1 -40 -2t-35 -1l4 77h285z" />
    <glyph glyph-name="uni0410" unicode="&#x410;" horiz-adv-x="667" 
d="M384 718l185 -545q5 -15 13.5 -45.5t9.5 -53.5l57 3l-3 -77h-268l4 66q28 0 39.5 11.5t11 31.5t-8.5 45l-17 55l-219 -4l-19 -47q-5 -13 -15.5 -38.5t-20.5 -42.5l74 3l-5 -80h-214l4 69q28 0 45.5 16t30.5 42t26 56l223 535h67zM315 542q-4 -17 -16 -51t-31 -81
l-51 -130h168l-39 125q-10 36 -19 72.5t-12 64.5z" />
    <glyph glyph-name="uni0411" unicode="&#x411;" horiz-adv-x="659" 
d="M35 0l3 66q23 1 39 6t25.5 23t11.5 58l20 383q2 27 4.5 52t4.5 38q-16 -1 -40.5 -1.5t-35.5 -1.5l5 77h528l-5 -194h-66q3 55 -14.5 82.5t-45 37.5t-54.5 9l-66 -1q-21 0 -36 -5.5t-24 -24t-12 -57.5l-7 -140l60 2q93 2 152 -13t91.5 -44t44 -68t9.5 -85
q-2 -65 -36.5 -109.5t-91 -67t-126.5 -22.5h-338zM346 72q62 3 91 34.5t32 95.5q3 55 -13.5 84t-45 40t-63.5 11q-25 1 -43 1t-38 -2l-9 -177q-1 -27 -3.5 -51t-4.5 -37h34t32 0.5t31 0.5z" />
    <glyph glyph-name="uni0412" unicode="&#x412;" horiz-adv-x="659" 
d="M347 702q119 1 186.5 -44.5t56.5 -137.5q-3 -29 -20 -56.5t-48.5 -49.5t-79.5 -35v-1q98 -16 141.5 -66.5t40.5 -112.5q-3 -65 -36.5 -109.5t-89 -67t-125.5 -22.5h-338l4 66q22 1 38 6t25.5 23t11.5 58l20 383q2 27 4.5 52t4.5 38q-16 -1 -40 -1.5t-35 -1.5l4 77
q69 1 137.5 1t137.5 1zM346 323h-43t-38 -1l-8 -163q-1 -27 -4 -51t-5 -37h34t32 0.5t32 0.5q61 3 90.5 39t32.5 91q3 46 -14.5 72.5t-46.5 37.5t-62 11zM340 632q-16 0 -30 -5t-22.5 -22.5t-10.5 -56.5l-8 -155q13 0 26 0.5t26 0.5q43 1 68.5 19t37.5 48.5t13 66.5
q3 40 -12 62.5t-38.5 32.5t-49.5 9z" />
    <glyph glyph-name="uni0413" unicode="&#x413;" horiz-adv-x="566" 
d="M35 0l4 66q22 1 38 6t25.5 23t11.5 58l20 383q2 27 4.5 52t4.5 38q-16 -1 -40 -1.5t-35 -1.5l4 77h498l-5 -194h-65q3 55 -15 83t-45.5 37.5t-54.5 8.5l-36 -1q-21 0 -36.5 -5.5t-24.5 -24t-11 -57.5l-20 -383q-1 -27 -3.5 -52t-4.5 -38q11 1 29 1.5t35 1t24 0.5l-4 -77
h-298z" />
    <glyph glyph-name="uni0414" unicode="&#x414;" horiz-adv-x="691" 
d="M589 547l-20 -383q-1 -27 -4 -51.5t-5 -38.5l100 3l-12 -254h-73q4 52 -1 92t-22.5 62.5t-53.5 22.5h-342q-55 0 -78.5 -49.5t-25.5 -127.5h-73l12 251h31q27 0 50.5 15.5t42.5 45.5q29 44 48 109t31.5 158.5t20.5 223.5l-107 -3l4 77h556l-3 -66q-22 -1 -38.5 -6
t-26 -22.5t-11.5 -58.5zM145 74h203q23 2 39 6.5t25.5 22.5t11.5 58l21 400q1 16 2.5 32t6.5 32l-94 -3q-37 -1 -54.5 -12.5t-20.5 -46.5q-7 -101 -21 -180t-32.5 -138t-40.5 -101t-46 -70z" />
    <glyph glyph-name="uni0415" unicode="&#x415;" horiz-adv-x="623" 
d="M570 700l-5 -194h-65q3 55 -15 83t-45.5 37.5t-54.5 8.5l-36 -1q-21 0 -36.5 -5.5t-24.5 -24t-11 -57.5l-7 -150h117v29.5v30.5v27h77l-12 -243h-66q2 42 -10.5 60.5t-34.5 23.5t-49 4l-26 -1l-9 -164q-1 -27 -3.5 -51t-4.5 -37h134q30 0 58.5 13.5t48 45t22.5 85.5h66
l-17 -220h-526l4 66q22 1 38 6t25.5 23t11.5 58l20 383q2 27 4.5 52t4.5 38q-16 -1 -40 -1.5t-35 -1.5l4 77h498z" />
    <glyph glyph-name="uni0416" unicode="&#x416;" horiz-adv-x="1046" 
d="M-8 0l4 66q23 1 46 16t46 39.5t45 52.5l111 145q12 17 28.5 31.5t36.5 26.5l-112 155q-30 41 -56 62.5t-48.5 30t-44.5 9.5l3 66h231l-4 -77q-10 1 -28.5 1.5t-34.5 1.5q12 -10 32.5 -36.5t46.5 -63.5l94 -131h70l8 141q2 27 4 52t5 38q-16 -1 -40.5 -1.5t-35.5 -1.5
l4 77h287l-3 -66q-22 -1 -38.5 -6t-26 -22.5t-11.5 -58.5l-8 -152h74l108 131q29 35 44.5 54t25.5 29t19 17q-16 -1 -34.5 -1.5t-29.5 -1.5l4 77h228l-3 -66q-22 -1 -46 -9.5t-52 -30t-63 -62.5l-128 -154q20 -13 34.5 -27.5t25.5 -31.5l95 -145q19 -28 39.5 -52.5
t42.5 -39.5t44 -16l-4 -66h-154q-8 1 -25 18t-35.5 41t-31.5 43l-91 144q-13 19 -27.5 39t-27.5 30h-36l-8 -151q-1 -27 -4 -52t-5 -38q17 2 41.5 2.5t34.5 0.5l-5 -77h-287l4 66q23 1 39 6t25.5 23t11.5 58l8 162h-36q-14 -10 -31 -30t-31 -39l-106 -144q-14 -19 -35.5 -43
t-40.5 -41t-28 -18h-154z" />
    <glyph glyph-name="uni0417" unicode="&#x417;" horiz-adv-x="660" 
d="M329 -16q-50 1 -104 14.5t-105 48.5t-94 97l51 44q46 -58 104 -90.5t122 -32.5q41 0 77.5 14t61 44.5t26.5 78.5q2 41 -12.5 67.5t-39 40t-51.5 13.5h-127l4 71h94q43 0 69 16.5t38 44.5t13 62q3 65 -28 95.5t-81 31.5q-60 -1 -110.5 -43t-68.5 -125h-65l13 233h77
l-6 -42q45 24 97.5 36.5t101.5 12.5q105 3 164.5 -44t54.5 -130q-2 -40 -18.5 -73t-48 -57t-78.5 -38v-3q59 -9 96 -35.5t54 -63.5t15 -80q-3 -68 -44 -115t-107 -70.5t-145 -22.5z" />
    <glyph glyph-name="uni0418" unicode="&#x418;" horiz-adv-x="772" 
d="M163 29l-49 51l533 590l45 -48zM35 0l4 66q23 1 39 6t25.5 23t11.5 58l20 383q2 27 4 52t5 38l-76 -3l4 77h283l-3 -66q-22 -1 -38.5 -6t-26 -22.5t-11.5 -58.5l-20 -383q-1 -27 -4 -52t-5 -38l76 3l-5 -77h-283zM463 0l4 66q23 1 39 6t25.5 23t11.5 58l20 383q2 27 4 52
t5 38l-76 -3l4 77h286l-4 -66q-22 -1 -38.5 -6t-26 -22.5t-11.5 -58.5l-20 -383q-1 -27 -3.5 -52t-5.5 -38l76 3l-4 -77h-286z" />
    <glyph glyph-name="uni0419" unicode="&#x419;" horiz-adv-x="772" 
d="M163 29l-49 51l533 590l45 -48zM35 0l4 66q23 1 39 6t25.5 23t11.5 58l20 383q2 27 4 52t5 38l-76 -3l4 77h283l-3 -66q-22 -1 -38.5 -6t-26 -22.5t-11.5 -58.5l-20 -383q-1 -27 -4 -52t-5 -38l76 3l-5 -77h-283zM463 0l4 66q23 1 39 6t25.5 23t11.5 58l20 383q2 27 4 52
t5 38l-76 -3l4 77h286l-4 -66q-22 -1 -38.5 -6t-26 -22.5t-11.5 -58.5l-20 -383q-1 -27 -3.5 -52t-5.5 -38l76 3l-4 -77h-286zM423 758q-34 0 -65.5 11t-51 32.5t-16.5 52.5q3 29 22 43t40 15q22 1 34 -8.5t17 -22t5 -22.5q-1 -6 -3.5 -15.5t-10.5 -18.5q9 -7 22.5 -10.5
t27.5 -3.5q15 0 30 3.5t26 10.5q15 10 26.5 27t25.5 42l53 -38q-37 -49 -83.5 -73.5t-98.5 -24.5z" />
    <glyph glyph-name="uni041A" unicode="&#x41a;" horiz-adv-x="711" 
d="M35 0l4 66q22 1 38 6t25.5 23t11.5 58l20 383q2 27 4.5 52t4.5 38q-16 -1 -40 -1.5t-35 -1.5l4 77h284l-3 -66q-22 -1 -38.5 -6t-26 -22.5t-11.5 -58.5l-8 -152h73l83 131q20 30 40.5 60t33.5 41q-16 -1 -34 -2t-29 -2l3 77h245l-3 -66q-22 -1 -48 -8t-54 -28t-58 -66
l-104 -154q19 -13 34 -27.5t25 -31.5l94 -145q19 -28 39.5 -52.5t42.5 -39.5t44 -16l-4 -66h-152q-8 1 -25.5 18t-36 41t-31.5 43l-91 144q-13 19 -27.5 39t-27.5 30h-14h-22l-8 -151q-1 -27 -3.5 -52t-4.5 -38q16 2 40.5 2.5t34.5 0.5l-4 -77h-285z" />
    <glyph glyph-name="uni041B" unicode="&#x41b;" horiz-adv-x="780" 
d="M113 -11q-43 0 -74 22.5t-31 61.5q0 36 19 62t58 26q30 0 49.5 -17.5t19.5 -42.5q0 -5 -1 -11t-4 -12q2 -1 6.5 -2t8.5 -1q28 0 52 41t42.5 115.5t31 175t18.5 219.5l-117 -3l4 77h557l-3 -66q-22 -1 -38.5 -6t-25.5 -22.5t-12 -58.5l-20 -383q-1 -27 -3.5 -52t-4.5 -38
q16 2 40.5 2.5t34.5 0.5l-4 -77h-287l3 66q23 1 39.5 6t25.5 23t11 58l22 414q1 14 2.5 29t6.5 29l-87 -3q-34 -1 -51 -13.5t-19 -45.5q-7 -159 -31 -269t-61 -177t-82 -97.5t-95 -30.5z" />
    <glyph glyph-name="uni041C" unicode="&#x41c;" horiz-adv-x="970" 
d="M397 -10l-122 329q-7 19 -18 54.5t-22 78.5t-19 83h-1q-1 -51 -2.5 -98t-4.5 -92l-11 -181q-1 -27 -4 -52t-5 -38q17 2 41.5 2.5t34.5 0.5l-4 -77h-228l4 66q23 1 38.5 6t24.5 23t12 58l26 383q2 27 4.5 52t4.5 38q-16 -1 -40.5 -1.5t-35.5 -1.5l5 77h214l137 -388
q17 -46 27.5 -86t20.5 -76h1l28 70t27 67l58 138t57.5 137.5t57.5 137.5h233l-4 -66q-22 -1 -39 -6t-26.5 -22.5t-10.5 -58.5l-5 -383q0 -27 -3 -52t-6 -38q17 2 41.5 2.5t34.5 0.5l-4 -77h-280l4 66q23 1 39.5 6t26 23t9.5 58l3 212q1 12 1 42.5v67v67.5h-1l-47 -114
l-182 -438h-90z" />
    <glyph glyph-name="uni041D" unicode="&#x41d;" horiz-adv-x="802" 
d="M774 700l-3 -66q-22 -1 -38.5 -6t-26 -22.5t-11.5 -58.5l-20 -383q-1 -27 -4 -52t-5 -38q17 2 41 2.5t34 0.5l-4 -77h-284l3 66q23 1 39 6t25.5 23t11.5 58l9 162l-276 -3l-8 -148q-1 -27 -3.5 -52t-4.5 -38q16 2 40.5 2.5t34.5 0.5l-4 -77h-285l4 66q22 1 38 6t25.5 23
t11.5 58l20 383q2 27 4.5 52t4.5 38q-16 -1 -40 -1.5t-35 -1.5l4 77h284l-3 -66q-22 -1 -38.5 -6t-26 -22.5t-11.5 -58.5l-8 -156h275l8 145q2 27 4 52t5 38q-16 -1 -40.5 -1.5t-35.5 -1.5l4 77h285z" />
    <glyph glyph-name="uni041E" unicode="&#x41e;" horiz-adv-x="762" 
d="M406 716q91 0 154.5 -33t102 -87.5t54.5 -118.5t13 -127q-3 -62 -27.5 -126t-70 -118.5t-112 -88t-155.5 -33.5q-95 0 -159.5 32t-102 85.5t-52.5 118.5t-11 130q3 63 27 127.5t70 118.5t113 87t156 33zM389 648q-51 -1 -87.5 -28t-59.5 -70t-34.5 -92.5t-13.5 -95.5
q-3 -47 4.5 -100.5t28.5 -101.5t58 -78t94 -30q52 0 88.5 26.5t59.5 68.5t35 91t14 95q3 69 -6 127t-32 100.5t-60 65.5t-89 22z" />
    <glyph glyph-name="uni041F" unicode="&#x41f;" horiz-adv-x="789" 
d="M35 0l4 66q22 1 38 6t25.5 23t11.5 58l20 383q2 27 4.5 52t4.5 38q-16 -1 -40 -1.5t-35 -1.5l4 77h690l-4 -66q-22 -1 -38.5 -6t-25.5 -22.5t-11 -58.5l-20 -383q-1 -27 -4 -52t-5 -38q16 2 40.5 2.5t34.5 0.5l-4 -77h-285l4 66q23 1 39 6t25.5 23t11.5 58l17 369
q2 26 3.5 52t5.5 51l-206 -3q-26 0 -42 -14.5t-21 -61.5l-20 -382q-1 -27 -3.5 -52t-4.5 -38q16 2 40.5 2.5t34.5 0.5l-4 -77h-285z" />
    <glyph glyph-name="uni0420" unicode="&#x420;" horiz-adv-x="632" 
d="M354 702q88 1 151.5 -23t96 -74t25.5 -130q-3 -40 -22.5 -78.5t-56 -70t-90 -51.5t-124.5 -22q-22 -1 -38.5 -1t-33.5 1l-5 -88q-1 -28 -3.5 -53t-4.5 -38q11 1 28 1.5t33 1t23 0.5l-3 -77h-295l4 66q22 1 38 6t25.5 23t11.5 58l20 383q2 27 4.5 52t4.5 38
q-16 -1 -40 -1.5t-35 -1.5l4 77q71 1 141.5 1t140.5 1zM349 632q-21 0 -36.5 -5t-24.5 -22t-11 -52l-11 -225l22 -2t23 -1q55 0 90.5 18.5t53.5 54t21 86.5q2 50 -10 80t-32.5 44.5t-43 19t-41.5 4.5z" />
    <glyph glyph-name="uni0421" unicode="&#x421;" horiz-adv-x="690" 
d="M408 716q39 0 84.5 -12.5t84.5 -36.5h1l-1 42h77l-12 -233h-66q-9 83 -49 127.5t-110 44.5q-52 0 -92.5 -24t-68.5 -65.5t-43.5 -93t-18.5 -105.5q-4 -86 17.5 -153.5t67 -106.5t112.5 -40q60 -1 125 28.5t116 95.5l39 -40q-52 -67 -107.5 -101.5t-107.5 -46.5t-94 -12
q-77 0 -138.5 27.5t-104.5 76t-64 113t-17 139.5q4 68 29.5 135t72 121.5t114 87t154.5 32.5z" />
    <glyph glyph-name="uni0422" unicode="&#x422;" horiz-adv-x="648" 
d="M650 700l-6 -226h-66q3 54 -10.5 89.5t-40 53t-64.5 16.5h-48l-24 -469q-1 -27 -4 -52t-5 -38q11 1 27 1.5t31 1t22 0.5l-4 -77h-290l4 66q23 1 39 6t25.5 23t11.5 58l25 479h-46q-57 -1 -92.5 -39t-39.5 -119h-66l17 226h604z" />
    <glyph glyph-name="uni0423" unicode="&#x423;" horiz-adv-x="639" 
d="M163 -16q-48 0 -77.5 27.5t-27.5 71.5q2 31 21 57t59 26q34 0 51 -18.5t15 -43.5q-2 -23 -18 -44q2 -3 5 -5t9 -2q14 0 29 12.5t33.5 39.5t42.5 71l-197 355q-12 23 -23 51t-10 44l-48 -3l4 77h289l-3 -66q-29 2 -48 -5.5t-24 -25.5t9 -46l71 -142q19 -38 28.5 -62.5
t13.5 -45.5h4l101 228q11 28 27.5 52t29.5 40l-77 -4l4 77h221l-3 -66q-23 -3 -44 -14t-39.5 -33t-36.5 -60l-174 -357q-35 -72 -73 -112.5t-74.5 -57t-69.5 -16.5z" />
    <glyph glyph-name="uni0424" unicode="&#x424;" horiz-adv-x="860" 
d="M269 -54l3 66q29 2 48 11t25 49q-115 9 -183.5 48t-96.5 97.5t-25 125.5q4 76 42.5 140.5t112.5 106.5t183 52q2 17 3.5 31t2.5 22q-16 -1 -40 -2t-35 -1l4 77h277l-3 -66q-30 -1 -48.5 -10t-24.5 -52q115 -11 185 -55t101 -106.5t28 -129.5q-4 -68 -43.5 -127
t-115 -98.5t-187.5 -50.5q-1 -17 -3 -31t-4 -22q17 1 41 1.5t34 0.5l-4 -77h-277zM350 140l24 436q-91 -15 -136 -73.5t-50 -147.5q-5 -90 35.5 -145t126.5 -70zM485 137q95 11 142 58t52 138q5 98 -35.5 161t-134.5 81z" />
    <glyph glyph-name="uni0425" unicode="&#x425;" horiz-adv-x="700" 
d="M21 0l4 66q29 7 59.5 32.5t69.5 74.5l125 155q-37 51 -75 102l-76 102q-16 21 -30.5 45t-24.5 49q-16 -1 -22.5 -1.5t-17.5 -1.5l4 77h302l-4 -66q-36 0 -50.5 -9t-12 -24.5t16.5 -34.5l82 -113l82 105q23 29 36 42.5t26 26.5q-16 -1 -40 -2t-35 -2l4 77h228l-4 -66
q-23 -3 -46 -16t-47.5 -36.5t-53.5 -60.5l-103 -131l176 -240q16 -21 29.5 -40t20.5 -36q17 2 22.5 2.5t16.5 0.5l-4 -77h-297l4 66q37 0 49 9t7 24.5t-20 34.5l-95 129l-94 -121q-22 -28 -34 -42t-25 -27q17 2 39 3t33 1l-4 -77h-221z" />
    <glyph glyph-name="uni0426" unicode="&#x426;" horiz-adv-x="794" 
d="M678 -177q6 78 -5.5 127.5t-55.5 49.5h-582l4 66q23 1 39 6t25 23t11 58l20 383q2 27 4.5 52t4.5 38q-16 -1 -40 -2t-35 -1l4 77h285l-4 -66q-22 -1 -38.5 -6t-26 -22.5t-11.5 -58.5l-17 -369q-1 -25 -2.5 -51t-6.5 -52l206 3q18 0 31 6t21 22.5t11 47.5l20 382
q2 27 4 52t4 38q-16 -1 -40 -2t-35 -1l4 77h285l-4 -66q-22 -1 -38 -6t-25.5 -22.5t-11.5 -58.5l-20 -383q-1 -27 -4 -52t-5 -38l111 5l-14 -256h-73z" />
    <glyph glyph-name="uni0427" unicode="&#x427;" horiz-adv-x="734" 
d="M385 0l4 66q22 1 38 6t25.5 23t11.5 58l8 153q-40 -22 -82.5 -37t-92.5 -15q-94 0 -142 50.5t-42 162.5q1 25 2.5 49.5t3 46.5t3.5 38.5t3 24.5l-76 -3l5 77h284l-3 -66q-22 -1 -38.5 -6t-25.5 -22.5t-12 -58.5l-5 -81q-2 -61 24 -90.5t78 -29.5q29 0 63.5 10.5
t56.5 25.5l8 154q2 27 4.5 52t4.5 38l-75 -3l4 77h284l-3 -66q-22 -1 -38.5 -6t-26 -22.5t-11.5 -58.5l-20 -383q-1 -27 -3.5 -52t-4.5 -38q16 2 40.5 2.5t34.5 0.5l-4 -77h-285z" />
    <glyph glyph-name="uni0428" unicode="&#x428;" horiz-adv-x="1100" 
d="M35 0l4 66q23 1 39 6t25.5 23t11.5 58l20 383q2 27 4 52t5 38q-16 -1 -40.5 -1.5t-35.5 -1.5l4 77h287l-3 -66q-22 -1 -38.5 -6t-26 -22.5t-11.5 -58.5l-21 -390q-1 -20 -2.5 -40.5t-5.5 -40.5l146 2q22 2 38 6.5t25.5 22.5t11.5 58l19 371q2 27 4.5 52t4.5 38
q-16 -1 -40.5 -1.5t-35.5 -1.5l5 77h287l-4 -66q-22 -1 -38.5 -6t-25.5 -22.5t-12 -58.5l-20 -383q-1 -26 -3.5 -50.5t-4.5 -37.5l146 2q22 1 37.5 5.5t25 23t11.5 58.5l20 371q2 27 4 52t4 38q-16 -1 -40 -1.5t-35 -1.5l4 77h287l-3 -66q-23 -1 -39 -6t-25.5 -22.5
t-11.5 -58.5l-20 -383q-1 -27 -4 -52t-5 -38q17 2 41 2.5t35 0.5l-5 -77h-1000z" />
    <glyph glyph-name="uni0429" unicode="&#x429;" horiz-adv-x="1104" 
d="M988 -177q6 78 -5.5 127.5t-55.5 49.5l37 74l111 5l-14 -256h-73zM35 0l4 66q23 1 39 6t25.5 23t11.5 58l20 383q2 27 4 52t5 38q-16 -1 -40.5 -1.5t-35.5 -1.5l4 77h287l-3 -66q-22 -1 -38.5 -6t-26 -22.5t-11.5 -58.5l-21 -390q-1 -20 -2.5 -40.5t-5.5 -40.5l146 2
q22 2 38 6.5t25.5 22.5t11.5 58l19 371q2 27 4.5 52t4.5 38q-16 -1 -40.5 -1.5t-35.5 -1.5l5 77h287l-4 -66q-22 -1 -38.5 -6t-25.5 -22.5t-12 -58.5l-20 -383q-1 -26 -3.5 -50.5t-4.5 -37.5l146 2q22 1 37.5 5.5t25 23t11.5 58.5l20 371q2 27 4 52t4 38q-16 -1 -40 -1.5
t-35 -1.5l4 77h287l-3 -66q-23 -1 -39 -6t-25.5 -22.5t-11.5 -58.5l-20 -383q-1 -27 -4 -52t-5 -38q17 2 41 2.5t35 0.5l-5 -77h-1000z" />
    <glyph glyph-name="uni042A" unicode="&#x42a;" horiz-adv-x="782" 
d="M168 0l4 66q23 1 39 6t25.5 23t11.5 58l21 399q1 20 3 40t7 40h-52q-57 -1 -92 -39t-40 -119h-66l18 226h446l-4 -66q-22 -1 -38.5 -6t-26 -22.5t-11.5 -58.5l-7 -140l35 2q90 3 149 -14t92 -48t45.5 -69.5t10.5 -78.5q-3 -65 -37 -109.5t-90 -67t-127 -22.5h-316z
M384 71h24.5t25 0.5t24.5 0.5q61 3 90.5 39.5t32.5 95.5q3 50 -12.5 78.5t-43.5 40.5t-66 11q-14 0 -28.5 -0.5t-28.5 -0.5l-9 -177q-1 -27 -3.5 -51t-5.5 -37z" />
    <glyph glyph-name="uni042B" unicode="&#x42b;" horiz-adv-x="969" 
d="M35 0l4 66q23 1 39 6t25.5 23t11.5 58l20 383q2 27 4 52t5 38q-16 -1 -40.5 -1.5t-35.5 -1.5l4 77h287l-3 -66q-22 -1 -38.5 -6t-26 -22.5t-11.5 -58.5l-8 -140l36 2q87 3 144 -14t89.5 -48t45.5 -69.5t11 -78.5q-3 -65 -37 -109.5t-88.5 -67t-121.5 -22.5h-316zM251 71
h24.5t24.5 0.5t24 0.5q56 3 84.5 39.5t31.5 95.5q3 50 -12 78.5t-41.5 40.5t-60.5 11q-14 0 -28.5 -0.5t-28.5 -0.5l-9 -177q-1 -27 -4 -51t-5 -37zM941 700l-3 -66q-22 -1 -38.5 -6t-26 -22.5t-11.5 -58.5l-20 -383q-1 -27 -3.5 -52t-4.5 -38q16 2 40.5 2.5t34.5 0.5
l-4 -77h-285l4 66q22 1 38 6t25.5 23t11.5 58l20 383q2 27 4.5 52t4.5 38q-16 -1 -40 -1.5t-35 -1.5l4 77h284z" />
    <glyph glyph-name="uni042C" unicode="&#x42c;" horiz-adv-x="649" 
d="M35 0l4 66q23 1 39 6t25.5 23t11.5 58l20 383q2 27 4 52t5 38q-16 -1 -40.5 -1.5t-35.5 -1.5l4 77h287l-3 -66q-22 -1 -38.5 -6t-26 -22.5t-11.5 -58.5l-8 -140l36 2q90 3 148.5 -14t91.5 -48t46 -69.5t11 -78.5q-3 -65 -37.5 -109.5t-90.5 -67t-126 -22.5h-316zM251 71
h24.5t24.5 0.5t24 0.5q62 3 91 39.5t33 95.5q3 50 -12.5 78.5t-44 40.5t-65.5 11q-14 0 -28.5 -0.5t-28.5 -0.5l-9 -177q-1 -27 -4 -51t-5 -37z" />
    <glyph glyph-name="uni042D" unicode="&#x42d;" horiz-adv-x="702" 
d="M309 -16q-41 0 -92.5 12t-103.5 46.5t-97 101.5l50 44q27 -42 64 -72t79 -46.5t84 -16.5q63 0 109.5 35t75.5 97t37 143l-162 1q-27 0 -49.5 -4.5t-37 -23t-16.5 -60.5h-62l13 218h73l-9 -62h252q-2 67 -23 124t-63.5 92t-107.5 35q-67 -1 -112.5 -40t-64.5 -118h-65
l12 219h77l-5 -42q41 24 90 36.5t98 12.5q83 0 144 -32.5t100.5 -87t57.5 -121.5t15 -135q-4 -75 -31.5 -139.5t-75.5 -113t-112.5 -76t-141.5 -27.5z" />
    <glyph glyph-name="uni042E" unicode="&#x42e;" horiz-adv-x="1110" 
d="M712 -16q-83 0 -141 28t-94 75.5t-53 106.5t-18 120l-141 -2l-8 -148q-1 -27 -3.5 -52t-4.5 -38q16 2 40.5 2.5t34.5 0.5l-4 -77h-285l4 66q22 1 38 6t25.5 23t11.5 58l20 383q2 27 4.5 52t4.5 38q-16 -1 -40 -1.5t-35 -1.5l4 77h284l-3 -66q-22 -1 -38.5 -6t-26 -22.5
t-11.5 -58.5l-8 -156h142q9 59 34.5 117t68 105t102.5 75t138 28q93 0 156.5 -33t101.5 -87.5t53.5 -119t12.5 -126.5t-27.5 -126t-70 -118.5t-112.5 -88t-156 -33.5zM727 52q52 0 88 26.5t59.5 68.5t35 91t14.5 95q5 91 -13.5 162.5t-61.5 113t-112 39.5q-46 -1 -79 -28
t-53.5 -70t-31 -92.5t-12.5 -95.5q-3 -47 4 -100.5t25.5 -101.5t52 -78t84.5 -30z" />
    <glyph glyph-name="uni042F" unicode="&#x42f;" horiz-adv-x="736" 
d="M387 0l3 66q23 1 39 6t25.5 23t11.5 58l6 119h-72v11q-94 0 -155 28.5t-90 76.5t-28 106q2 66 33.5 112t86.5 70t125 24h336l-3 -66q-22 -1 -38.5 -6t-26 -22.5t-11.5 -58.5l-20 -383q-1 -27 -3.5 -52t-5.5 -38q17 2 41 2.5t34 0.5l-4 -77h-284zM431 344q12 0 23 1l22 2
l11 209q1 20 3 37.5t6 36.5h-24h-24.5h-24.5q-59 0 -97.5 -28.5t-43.5 -104.5q-2 -48 13 -82.5t49 -52.5t87 -18zM19 0l3 66q23 1 46.5 15.5t47 39t43.5 53.5l41 58q23 35 45.5 51t50 23.5t63.5 13.5h90l23 -48q-29 0 -51 -4t-41.5 -18.5t-41.5 -47.5l-69 -100
q-14 -20 -35 -43.5t-40.5 -40.5t-27.5 -18h-147z" />
    <glyph glyph-name="uni0430" unicode="&#x430;" horiz-adv-x="549" 
d="M327 511q28 0 65.5 -5.5t78.5 -15.5q-5 -37 -13 -91t-15.5 -110.5t-12.5 -104t-5 -73.5q0 -18 4.5 -23.5t9.5 -5.5q12 0 25 17t26 62l54 -16q-4 -21 -14 -48t-26.5 -51.5t-41 -40.5t-57.5 -16q-32 0 -56 19t-24 72q0 13 1 29t3 29h-1q-18 -43 -38.5 -72t-42 -46t-44 -24
t-45.5 -7q-55 0 -94 44.5t-39 137.5q0 69 20 130t59 108.5t95 74.5t128 27zM290 445q-28 0 -51.5 -18t-41 -53t-26.5 -87t-9 -121q0 -41 10 -64.5t28 -23.5q22 0 41 22.5t34.5 61t27 86t19 97t9.5 94.5q-5 2 -17.5 4t-23.5 2z" />
    <glyph glyph-name="uni0431" unicode="&#x431;" horiz-adv-x="535" 
d="M243 -11q-63 0 -111.5 36t-73.5 108.5t-20 179.5q3 67 16.5 132t45 120.5t89.5 92.5q46 30 93 40.5t87 15t65 15.5q13 6 21.5 14t21.5 27l44 -16q-14 -51 -26.5 -80t-27.5 -44t-38 -24q-27 -7 -58 -9.5t-63 -5.5t-63 -13q-65 -21 -102.5 -78t-48.5 -143h3
q31 65 84.5 94.5t110.5 30.5q54 0 101 -25t75.5 -74.5t26.5 -123.5q-2 -82 -36.5 -143t-90.5 -94t-125 -33zM263 55q36 1 55.5 28t28 68t10.5 84q2 41 -4.5 83t-23.5 70t-50 27q-30 0 -51 -23t-33 -58t-14 -71q-2 -50 5.5 -98.5t26.5 -79.5t50 -30z" />
    <glyph glyph-name="uni0432" unicode="&#x432;" horiz-adv-x="507" 
d="M229 -11q-71 0 -116 28t-65.5 77t-20.5 111q0 56 16.5 110.5t49 98.5t80.5 70.5t112 26.5q40 0 74.5 -12t56.5 -36.5t22 -60.5q0 -44 -41 -86t-141 -64l2 -20l-93 -24q4 -70 27 -108t67 -38q36 0 58.5 23.5t22.5 60.5q0 27 -13.5 49.5t-42 31t-74.5 -6.5l-7 39
q78 20 129 18t80.5 -18t41.5 -41t12 -52q0 -49 -31 -89t-84.5 -64t-121.5 -24zM167 274q57 14 87.5 30.5t43.5 37.5t15 48q3 31 -6 43t-28 12q-27 0 -50 -22.5t-39 -61t-23 -87.5z" />
    <glyph glyph-name="uni0433" unicode="&#x433;" horiz-adv-x="443" 
d="M196 -16q-37 0 -75 12.5t-63 39.5t-25 69q0 34 16.5 61t52.5 54t92 60q35 21 56 40.5t22 48.5q1 23 -13 38t-42 15q-26 0 -49.5 -8.5t-44.5 -25.5t-43 -42l-48 36q44 59 103.5 94.5t133.5 35.5q52 0 82 -16.5t43.5 -42.5t13.5 -54q0 -52 -36.5 -85t-101.5 -69
q-49 -27 -72.5 -49.5t-25.5 -49.5q-2 -26 10 -41t30 -21t35 -6q68 0 133 79l48 -39q-25 -34 -56.5 -64.5t-74.5 -50t-101 -19.5z" />
    <glyph glyph-name="uni0434" unicode="&#x434;" horiz-adv-x="524" 
d="M232 -11q-58 0 -105 26t-74 75t-26 119q2 88 37 154t92 102.5t122 34.5q29 -1 53 -12t43 -39q-6 125 -47.5 185.5t-101.5 60.5q-23 0 -47 -8.5t-50 -25.5l-30 38q35 27 68 43.5t75 16.5q66 0 115.5 -35t81.5 -97.5t46 -146t9 -181.5q-4 -86 -27.5 -145.5t-60.5 -95.5
t-81.5 -52.5t-91.5 -16.5zM243 55q23 0 43.5 13t36.5 40t27 67.5t16 94.5q4 40 -1 77t-22 60.5t-51 23.5t-63 -26t-47 -75.5t-20 -120.5q-1 -55 10 -89t30 -49.5t41 -15.5z" />
    <glyph glyph-name="uni0435" unicode="&#x435;" horiz-adv-x="470" 
d="M280 511q44 0 78 -13t53 -41t19 -72q0 -41 -24.5 -69.5t-64 -46.5t-86.5 -29.5t-91 -17.5q0 -57 13.5 -87.5t34.5 -42t42 -11.5q17 0 40.5 6.5t47.5 27.5t42 62l56 -27q-28 -65 -63 -100t-73 -48t-77 -13q-92 -1 -146 53t-54 165q0 48 15 101t45.5 99t78.5 75t114 29z
M269 445q-34 0 -55 -24t-32 -60.5t-15 -73.5q54 10 86 27t46.5 39t13.5 46q-1 25 -15 35.5t-29 10.5z" />
    <glyph glyph-name="uni0436" unicode="&#x436;" horiz-adv-x="929" 
d="M156 -11q-34 0 -63 15t-46.5 42t-17.5 63q0 27 14 44t40 17q23 0 39 -14t16 -31t-7 -28t-22 -20q4 -21 14.5 -31t27.5 -10q24 0 40 24.5t25.5 61.5t14 76t5.5 69q2 82 -18 124.5t-50 42.5q-22 0 -47 -26.5t-46 -81.5l-49 22q22 65 48 100t56 49t63 14q44 0 79 -22
t56 -69.5t21 -126.5q0 -81 -22.5 -150.5t-65.5 -111.5t-105 -42zM736 -11q-43 1 -78.5 22.5t-56.5 69t-21 126.5q0 82 22.5 151t65.5 111t105 42q52 0 89.5 -32.5t37.5 -87.5q0 -27 -13.5 -44t-39.5 -17q-24 0 -40 14t-16 31t7 28t22 20q-4 21 -14.5 31t-27.5 10
q-24 0 -40 -24.5t-25.5 -61t-14 -76t-5.5 -69.5q-1 -82 19 -124.5t49 -42.5q23 0 47.5 26.5t45.5 81.5l49 -22q-21 -65 -47.5 -100t-56 -48.5t-63.5 -14.5zM385 0q-1 11 -1.5 18.5t-0.5 17.5q0 16 1.5 38.5t5 60t10.5 97.5q6 53 11.5 102.5t5.5 100.5q-1 14 -2 31t-3 34h127
q2 -11 2.5 -18t0.5 -18q0 -40 -5 -92.5t-11.5 -109t-11 -108t-3.5 -89.5q0 -14 1 -31t3 -34h-130zM317 216l6 70h281l-4 -68z" />
    <glyph glyph-name="uni0437" unicode="&#x437;" horiz-adv-x="484" 
d="M209 -17q-60 0 -104.5 18.5t-68.5 48t-23 61.5q2 26 20 46.5t49 20.5q34 0 47 -20t13 -41q0 -10 -3 -20t-8 -18q3 -13 26 -25t48 -12q49 0 74.5 27.5t25.5 73.5q0 50 -34 75t-118 10l-9 51q59 13 91 27t44 33t12 46q0 36 -20.5 51.5t-49.5 15.5q-19 0 -39 -6.5t-28 -17.5
q9 -9 12 -18.5t3 -24.5q0 -20 -16.5 -36t-43.5 -16q-25 0 -41.5 15t-18.5 40q-1 32 22 60.5t65.5 46t97.5 17.5q85 0 136.5 -30t51.5 -88q0 -45 -33.5 -72.5t-86.5 -43.5v-3q73 -7 107 -41.5t34 -80.5q0 -42 -23.5 -81t-75 -64t-135.5 -25z" />
    <glyph glyph-name="uni0438" unicode="&#x438;" horiz-adv-x="598" 
d="M211 -11q-42 0 -68.5 19t-39 53.5t-12.5 81.5q0 37 6.5 81l13 88t6.5 80q0 17 -5.5 21.5t-10.5 4.5q-11 0 -23 -17t-25 -62l-54 16q4 21 15.5 48t30.5 51.5t45 40.5t60 16q56 0 75.5 -30t19.5 -83q0 -30 -4 -67.5t-9 -76.5t-9 -73.5t-4 -57.5q0 -15 3 -24.5t9 -13.5
t16 -4q17 0 35.5 22t35.5 59.5t31 83t22.5 93t8.5 89.5q0 14 -0.5 37t-2.5 35h129q2 -21 2.5 -29.5t0.5 -18.5q0 -21 -2.5 -50.5t-6.5 -63.5t-9 -68q-3 -27 -6.5 -52t-6.5 -46.5t-4.5 -38t-1.5 -25.5q0 -16 4.5 -21t9.5 -5q11 0 23 17t25 62l54 -16q-4 -21 -13 -48
t-25 -51.5t-39 -40.5t-56 -16q-32 0 -58 19t-26 72q0 20 2 34t3 31h-1q-23 -60 -50 -94t-56 -48t-58 -14z" />
    <glyph glyph-name="uni0439" unicode="&#x439;" horiz-adv-x="598" 
d="M211 -11q-42 0 -68.5 19t-39 53.5t-12.5 81.5q0 37 6.5 81l13 88t6.5 80q0 17 -5.5 21.5t-10.5 4.5q-11 0 -23 -17t-25 -62l-54 16q4 21 15.5 48t30.5 51.5t45 40.5t60 16q56 0 75.5 -30t19.5 -83q0 -30 -4 -67.5t-9 -76.5t-9 -73.5t-4 -57.5q0 -15 3 -24.5t9 -13.5
t16 -4q17 0 35.5 22t35.5 59.5t31 83t22.5 93t8.5 89.5q0 14 -0.5 37t-2.5 35h129q2 -21 2.5 -29.5t0.5 -18.5q0 -21 -2.5 -50.5t-6.5 -63.5t-9 -68q-3 -27 -6.5 -52t-6.5 -46.5t-4.5 -38t-1.5 -25.5q0 -16 4.5 -21t9.5 -5q11 0 23 17t25 62l54 -16q-4 -21 -13 -48
t-25 -51.5t-39 -40.5t-56 -16q-32 0 -58 19t-26 72q0 20 2 34t3 31h-1q-23 -60 -50 -94t-56 -48t-58 -14zM292 585q-34 0 -65.5 11t-51 32.5t-16.5 53.5q3 29 22 43t40 14q33 1 44.5 -18.5t11.5 -33.5q-1 -7 -4 -16t-10 -19q9 -7 22 -11t27 -4q39 0 68 23q14 11 24 26.5
t18 34.5l52 -37q-37 -49 -83.5 -74t-98.5 -25z" />
    <glyph glyph-name="uni043A" unicode="&#x43a;" horiz-adv-x="642" 
d="M463 -11q-49 0 -75 29.5t-29 90.5q-3 62 -15.5 90t-43.5 28l-129 -1l1 63h177v-20q59 -3 89.5 -33t35.5 -89q3 -43 10.5 -56t17.5 -12q10 0 21.5 16t26.5 66l54 -16q-4 -33 -20 -69.5t-46 -61.5t-75 -25zM92 0q-2 15 -2.5 26.5t-0.5 21.5q0 26 3.5 64t9 80t11 82.5
t9 71.5t3.5 46q0 14 -3 20t-11 6q-11 0 -23 -17t-25 -62l-55 16q5 21 17 48t31.5 51.5t47 40.5t63.5 16q38 0 62.5 -25t24.5 -91q0 -20 -4.5 -55.5t-11 -79.5t-11.5 -91.5t-5 -91.5q0 -22 1 -43t2 -34h-133zM251 251l15 38q36 0 62 17t42 69q20 66 55 101t79 35
q35 0 58 -19.5t23 -52.5q0 -28 -16.5 -49.5t-47.5 -21.5q-20 0 -36 10.5t-19 30.5q-14 -10 -22 -21.5t-19 -35.5q-22 -46 -47.5 -68t-69.5 -22z" />
    <glyph glyph-name="uni043B" unicode="&#x43b;" horiz-adv-x="631" 
d="M83 -11q-37 0 -60 22t-23 53q0 30 20 50t44 20q25 0 41 -13.5t16 -36.5v-6t-1 -6q24 6 44.5 29.5t37.5 59.5t30.5 80t24 92.5t18.5 97.5l-92 -1l6 70h354q2 -21 2.5 -29.5t0.5 -18.5q0 -26 -3.5 -64t-9 -80t-11.5 -82.5t-9.5 -71.5t-3.5 -46q0 -16 4.5 -21t9.5 -5
q11 0 23 17t25 62l54 -16q-4 -21 -16 -48t-31 -51.5t-45.5 -40.5t-59.5 -16q-21 0 -42.5 8.5t-35.5 30.5t-14 62q0 26 4.5 63.5t10 82.5t10.5 95t5 101l-28 -1q-8 -1 -16 -5.5t-10 -14.5q-17 -85 -40 -161t-55 -135t-76 -92.5t-103 -33.5z" />
    <glyph glyph-name="uni043C" unicode="&#x43c;" horiz-adv-x="877" 
d="M85 -11q-38 0 -61.5 22t-23.5 53q0 30 20.5 50t47.5 20q23 0 38.5 -14t15.5 -37v-4.5t-1 -5.5q22 9 42 43t36.5 85t30 110t22.5 119h-109l5 70h286q5 -16 7 -41.5t2 -51.5q-1 -68 1 -135.5t5 -126.5q2 -19 4.5 -28.5t9.5 -9.5q9 0 29 42.5t50 129.5t68 221h178
q2 -21 2.5 -29.5t0.5 -18.5q0 -26 -3.5 -64t-9 -80.5t-11.5 -82.5t-9.5 -71.5t-3.5 -46.5q0 -16 4.5 -20.5t9.5 -4.5q11 0 23 17t25 62l55 -16q-4 -21 -16.5 -48t-32 -51.5t-46 -40.5t-60.5 -16q-20 0 -41 8.5t-35 31t-14 64.5q0 19 3 47.5t8 68.5t11 92t13 117h-10
q-40 -121 -70.5 -203.5t-57 -132t-55 -71.5t-64.5 -22q-35 0 -53.5 30t-21.5 104q-2 28 -2.5 67.5t0.5 82.5t2.5 81.5t3.5 63.5h-15q-19 -86 -40 -163.5t-47.5 -137t-62 -94t-83.5 -34.5z" />
    <glyph glyph-name="uni043D" unicode="&#x43d;" horiz-adv-x="610" 
d="M452 -11q-21 0 -42.5 8.5t-35.5 30.5t-14 62q0 23 4 56t8 71l-139 -1q-4 -34 -7.5 -70t-3.5 -69q0 -22 1 -43t2 -34h-133q-2 15 -2.5 26.5t-0.5 21.5q0 21 2.5 50.5t6.5 63t8 66.5q4 27 7.5 52.5t6 47t4 38.5t1.5 26q0 14 -3 20t-11 6q-11 0 -23 -17t-25 -62l-55 16
q5 21 16.5 48t31 51.5t46 40.5t60.5 16q28 0 48.5 -10.5t32 -36t11.5 -69.5q0 -16 -3.5 -45t-8.5 -64h138q4 34 6.5 70t3.5 72.5t-2 71.5h134q2 -21 2.5 -29.5t0.5 -18.5q0 -26 -3.5 -64t-9 -80t-11.5 -82.5t-9.5 -71.5t-3.5 -46q0 -16 4.5 -21t9.5 -5q11 0 23 17t25 62
l54 -16q-4 -21 -16 -48t-31 -51.5t-45.5 -40.5t-59.5 -16z" />
    <glyph glyph-name="uni043E" unicode="&#x43e;" horiz-adv-x="515" 
d="M279 511q56 0 101.5 -26t72.5 -76t27 -121q0 -79 -30.5 -147.5t-86.5 -110t-134 -41.5q-67 0 -112 30.5t-67 82.5t-22 114q0 80 30.5 147t87 107.5t133.5 40.5zM264 445q-30 1 -52.5 -26.5t-35 -73.5t-12.5 -101q0 -30 3.5 -63t13 -61.5t25 -46.5t39.5 -18q26 0 44 20
t29.5 51.5t17 66.5t6.5 66q1 27 -2 59t-11 61t-24 47.5t-41 18.5z" />
    <glyph glyph-name="uni043F" unicode="&#x43f;" horiz-adv-x="610" 
d="M453 -11q-55 0 -74.5 30t-19.5 83q0 30 4 67.5t8.5 76.5t8.5 73.5t4 57.5q0 15 -3 24.5t-9 13.5t-16 4q-18 0 -37.5 -22t-37.5 -59.5t-32 -83t-22.5 -93t-8.5 -89.5q0 -13 1 -36.5t2 -35.5h-129q-2 21 -2.5 29.5t-0.5 18.5q0 21 2.5 49.5t6.5 62t8 66.5q3 27 6.5 52.5
t6.5 48t4.5 39.5t1.5 26q0 17 -4.5 21.5t-9.5 4.5q-11 0 -23 -17t-25 -62l-55 16q5 21 14 48t25 51.5t39 40.5t56 16q22 0 41 -8t31 -27.5t12 -55.5q0 -19 -2 -31t-4 -29h1q24 60 52.5 93t59 45.5t59.5 12.5q43 0 69 -19t38.5 -53.5t12.5 -81.5q0 -36 -6 -80t-12.5 -88
t-6.5 -81q0 -16 5 -21t10 -5q11 0 23 17t25 62l54 -16q-4 -21 -15.5 -48t-30.5 -51.5t-45 -40.5t-60 -16z" />
    <glyph glyph-name="uni0440" unicode="&#x440;" horiz-adv-x="575" 
d="M28 -255v65q25 0 37.5 11.5t18 32t7.5 46.5q11 117 18 202.5t10.5 143.5t5 92.5t1.5 50.5q0 18 -4.5 23.5t-10.5 5.5q-11 0 -23 -17t-25 -62l-54 16q4 21 13 48t25 51.5t39.5 40.5t56.5 16q32 0 57 -19t25 -72q0 -19 -1 -31t-3 -29h1q24 60 53.5 93t60.5 45.5t57 12.5
q48 0 81 -24t50 -67t17 -100q0 -95 -30.5 -170t-93 -118t-158.5 -43h-14.5t-17.5 1q-2 -48 -4 -80.5t-4 -54t-4 -37.5q16 2 36 2.5t30 0.5v-76h-253zM271 55q34 0 57.5 19.5t38.5 50.5t23.5 67t11.5 69.5t3 57.5q0 37 -6 59t-17 32t-26 10q-20 0 -37.5 -16t-32 -48
t-25.5 -79t-19 -109q-3 -25 -6 -51.5t-5 -55.5q11 -3 22.5 -4.5t17.5 -1.5z" />
    <glyph glyph-name="uni0441" unicode="&#x441;" horiz-adv-x="467" 
d="M273 511q46 0 82.5 -15t58 -41.5t21.5 -63.5q0 -30 -17.5 -49t-46.5 -20q-34 -1 -48 20.5t-14 38.5q0 9 2.5 20.5t7.5 21.5q-4 9 -17 15.5t-31 6.5q-32 0 -52.5 -21.5t-32 -54.5t-16.5 -69.5t-6 -66.5q-2 -54 10 -87t32 -48t41 -17q19 -1 43 5.5t49 29t45 69.5l57 -28
q-28 -65 -63 -101.5t-74 -51t-81 -15.5q-88 1 -142 54t-54 164q0 48 15 101t45.5 99t76.5 75t109 29z" />
    <glyph glyph-name="uni0442" unicode="&#x442;" horiz-adv-x="878" 
d="M721 -11q-55 0 -74.5 30t-19.5 83q0 30 4 67.5t8.5 76.5t8.5 73.5t4 57.5q0 15 -2.5 24.5t-8.5 13.5t-17 4q-18 0 -37 -21.5t-36.5 -58t-31 -81.5t-21.5 -92t-8 -89q0 -13 1 -35.5t2 -41.5h-129q-2 21 -2.5 39.5t-0.5 27.5q0 43 3.5 87.5t8 87t8 77.5t3.5 58t-6.5 32.5
t-21.5 9.5q-18 0 -37.5 -22t-37.5 -59.5t-32.5 -83t-23 -93t-8.5 -89.5q0 -13 1 -36.5t2 -35.5h-128q-2 21 -2.5 29.5t-0.5 18.5q0 20 2 46.5t6 58t8 62.5q3 29 6.5 56t6.5 51t5 42t2 28q0 17 -4.5 21.5t-9.5 4.5q-11 0 -23 -17t-25 -62l-55 16q5 21 14 48t25 51.5t39 40.5
t56 16q22 0 41 -8t31 -27.5t12 -55.5q0 -19 -2 -31t-4 -29h1q24 60 53.5 93t61 45.5t59.5 12.5q33 0 54.5 -13.5t32.5 -39.5t11 -62v-17t-2 -19h1q24 60 51.5 93t57.5 45.5t58 12.5q43 0 69.5 -19t39 -53.5t12.5 -81.5q0 -36 -6 -80t-12.5 -88t-6.5 -81q0 -16 5 -21t10 -5
q11 0 23 17t25 62l55 -16q-4 -21 -16 -48t-30.5 -51.5t-45 -40.5t-60.5 -16z" />
    <glyph glyph-name="uni0443" unicode="&#x443;" horiz-adv-x="561" 
d="M123 -271q-46 0 -70.5 22t-24.5 56q0 32 20.5 51t43.5 19q53 0 61 -54q2 -1 5 -1h5q17 0 35.5 13t35.5 32t30.5 38.5t19.5 33.5q-7 48 -23 103.5t-36.5 113t-42.5 111t-41 97.5q-7 16 -18.5 35t-28.5 19q-13 0 -26.5 -14t-18.5 -61l-56 8q2 22 10.5 49t26 52.5t45 42
t67.5 16.5q33 0 56.5 -15.5t40 -39.5t26.5 -49q14 -34 34 -88t38.5 -117.5t29.5 -128.5h1q21 46 35 89t22.5 82t10.5 72q1 11 0 34.5t-12 35.5q-4 -1 -7 -1h-7q-25 0 -43 17t-18 41q0 35 22 51.5t47 16.5q37 0 59.5 -21t32.5 -53t10 -66q0 -43 -14 -104t-39.5 -129.5
t-59.5 -135.5q-38 -73 -84 -135.5t-97 -100t-103 -37.5z" />
    <glyph glyph-name="uni0444" unicode="&#x444;" horiz-adv-x="776" 
d="M225 -255v65q25 0 37.5 11.5t18 32t7.5 46.5q5 66 10.5 133t11 133.5t11.5 133t13 131.5t15 128q3 20 6 45.5t7 47.5q-16 -1 -39 -1.5t-37 -1.5l4 76q47 0 77.5 5t48.5 12t25 13h55q-4 -31 -7.5 -61t-7 -59.5t-7.5 -58.5q-10 -91 -18.5 -173t-14.5 -155t-10 -135.5
t-7 -114t-5 -90.5q-1 -14 -2.5 -40.5t-4.5 -49.5q16 2 36 2.5t30 0.5v-76h-253zM229 -11q-67 0 -112 30.5t-67 82.5t-22 114q0 80 31.5 147t86.5 107.5t125 40.5q35 0 57.5 -10.5t42.5 -30.5l-21 -75q-7 20 -22 35t-44 15q-37 1 -64 -26.5t-41.5 -73.5t-14.5 -101
q0 -30 4 -63t14 -61.5t27.5 -46.5t45.5 -18q25 0 44.5 14t31.5 34l19 -82q-26 -15 -56 -23.5t-65 -8.5zM492 -11q-46 0 -79.5 15.5t-56.5 42.5l32 79q24 -31 49.5 -51t54.5 -20q30 0 50.5 20t33.5 51.5t19.5 66.5t7.5 66q1 24 -1.5 55t-10.5 61t-26 50t-49 20
q-29 0 -60.5 -17t-48.5 -45l-34 59q32 32 73.5 50.5t90.5 18.5q57 0 103.5 -26t73.5 -76t27 -121q0 -60 -17 -113.5t-49.5 -95.5t-78.5 -66t-104 -24z" />
    <glyph glyph-name="uni0445" unicode="&#x445;" horiz-adv-x="543" 
d="M96 -11q-37 0 -58.5 19t-21.5 50t19 50.5t44 19.5q24 0 38 -11.5t18 -25.5q15 10 31.5 48t41.5 112q-16 42 -25.5 73t-22.5 60q-10 21 -17.5 27t-17.5 7q-13 1 -25.5 -14.5t-17.5 -60.5l-56 8q2 22 10.5 49t25 52.5t44 42t67.5 16.5q41 0 62.5 -24t35.5 -63
q6 -15 10.5 -27.5t11.5 -40.5q21 54 40.5 85t37 46t33 19.5t28.5 4.5q36 0 53 -19.5t17 -48.5q0 -25 -18.5 -44t-44.5 -19q-18 0 -29.5 6.5t-18.5 14.5q-9 -7 -18 -20.5t-21 -38.5t-30 -68q10 -28 23 -61t27.5 -63t28.5 -49t26 -19q14 0 23.5 14.5t14.5 60.5l56 -8
q-2 -22 -9 -49t-22 -52.5t-41 -42t-66 -16.5q-25 0 -43 8t-33 27t-31 52.5t-38 84.5h-1q-19 -56 -37 -90.5t-35 -52t-34.5 -23.5t-34.5 -6z" />
    <glyph glyph-name="uni0446" unicode="&#x446;" horiz-adv-x="622" 
d="M497 -200l-38 38q19 22 28 37t11 27.5t1 24.5q-2 26 2.5 38.5t13.5 31.5l-8 2q-10 -4 -21 -7t-24 -3q-32 0 -58 19t-26 72q0 20 2 34t3 31h-1q-23 -60 -50 -94t-56 -48t-58 -14q-42 0 -68.5 19t-39 53.5t-12.5 81.5q0 37 6.5 81l13 88t6.5 80q0 17 -5.5 21.5t-10.5 4.5
q-11 0 -23 -17t-25 -62l-54 16q4 21 15.5 48t30.5 51.5t45 40.5t60 16q56 0 75.5 -30t19.5 -83q0 -30 -4 -67.5t-9 -76.5t-9 -73.5t-4 -57.5q0 -15 3 -24.5t9 -13.5t16 -4q17 0 35.5 22t35.5 59.5t31 83t22.5 93t8.5 89.5q0 14 -0.5 37t-2.5 35h129q2 -21 2.5 -29.5
t0.5 -18.5q0 -21 -2.5 -50.5t-6.5 -63.5t-9 -68q-3 -27 -6.5 -52t-6.5 -46.5t-4.5 -38t-1.5 -25.5q0 -16 4.5 -21t9.5 -5q11 0 23 17t25 62l54 -16q-3 -16 -9 -37t-17 -41q-5 -16 -4.5 -32t9.5 -30q28 -45 10 -97t-87 -108z" />
    <glyph glyph-name="uni0447" unicode="&#x447;" horiz-adv-x="610" 
d="M228 155q-65 0 -91.5 49t-18.5 122q6 37 7.5 57t-2 27.5t-12.5 7.5q-11 0 -23 -17t-25 -62l-55 16q5 21 17 48t32 51.5t48 40.5t65 16q50 0 66.5 -30t16.5 -76q0 -18 -2 -38t-4 -41q-4 -40 3.5 -59.5t35.5 -19.5q23 0 49.5 11t47 26.5t22.5 28.5l-9 -86
q-37 -36 -80.5 -54t-87.5 -18zM450 -11q-20 0 -41 8.5t-35 31.5t-14 66q0 25 4.5 62.5t10.5 84t10.5 97.5t4.5 103q0 14 -0.5 29t-1.5 29h134q2 -21 2.5 -29.5t0.5 -18.5q0 -26 -3.5 -64t-9 -80t-11.5 -82.5t-9.5 -71.5t-3.5 -46q0 -16 4.5 -21t9.5 -5q11 0 23 17t25 62
l54 -16q-4 -21 -16 -48t-31.5 -51.5t-46 -40.5t-60.5 -16z" />
    <glyph glyph-name="uni0448" unicode="&#x448;" horiz-adv-x="878" 
d="M219 -11q-42 0 -68.5 19t-39 53.5t-12.5 81.5q0 37 6.5 81t12.5 88t6 80q0 17 -5 21.5t-11 4.5q-11 0 -23 -17t-25 -62l-54 16q4 21 15.5 48t30.5 51.5t45 40.5t60 16q56 0 75 -30t19 -83q0 -30 -4 -67.5t-8.5 -76.5t-8.5 -73.5t-4 -57.5q0 -15 3 -24.5t9 -13.5t16 -4
q18 0 37 21.5t36.5 58t31.5 81.5t22 92t8 89q0 14 -1 36t-3 41h130q2 -21 2.5 -39.5t0.5 -27.5q0 -43 -3.5 -87.5t-8.5 -87t-8.5 -77.5t-3.5 -58q0 -22 6.5 -32t21.5 -10q18 0 37.5 22t37.5 59.5t32.5 83t23 93t8.5 89.5q0 14 -1 37t-2 35h129q2 -21 2.5 -29.5t0.5 -18.5
q0 -21 -2.5 -50t-6.5 -62t-9 -67q-3 -27 -6.5 -52.5t-6.5 -47.5t-4.5 -39t-1.5 -26q0 -16 4.5 -21t10.5 -5q11 0 23 17t25 62l54 -16q-4 -21 -13 -48t-25 -51.5t-39.5 -40.5t-56.5 -16q-21 0 -40.5 8t-31.5 28t-12 55q0 20 2 31.5t4 28.5h-1q-23 -60 -52.5 -93t-61 -45.5
t-60.5 -12.5q-32 0 -54 13.5t-33 39t-11 61.5q0 8 1 17.5t2 19.5h-1q-23 -60 -51.5 -93t-58 -45.5t-58.5 -12.5z" />
    <glyph glyph-name="uni0449" unicode="&#x449;" horiz-adv-x="919" 
d="M772 -200l-38 38q19 22 28 37t11 27.5t1 24.5q-2 26 2 38.5t13 31.5l-10 3v69l45 82l40 -15l-19 -67q-6 -16 -5.5 -32.5t9.5 -31.5q28 -45 10 -97t-87 -108zM219 -11q-42 0 -68.5 19t-39 53.5t-12.5 81.5q0 37 6.5 81t12.5 88t6 80q0 17 -5 21.5t-11 4.5q-11 0 -23 -17
t-25 -62l-54 16q4 21 15.5 48t30.5 51.5t45 40.5t60 16q56 0 75 -30t19 -83q0 -30 -4 -67.5t-8.5 -76.5t-8.5 -73.5t-4 -57.5q0 -15 3 -24.5t9 -13.5t16 -4q18 0 37 21.5t36.5 58t31.5 81.5t22 92t8 89q0 14 -1 36t-3 41h130q2 -21 2.5 -39.5t0.5 -27.5q0 -43 -3.5 -87.5
t-8.5 -87t-8.5 -77.5t-3.5 -58q0 -22 6.5 -32t21.5 -10q18 0 37.5 22t37.5 59.5t32.5 83t23 93t8.5 89.5q0 14 -1 37t-2 35h129q2 -21 2.5 -29.5t0.5 -18.5q0 -21 -2.5 -50t-6.5 -62t-9 -67q-3 -27 -6.5 -52.5t-6.5 -47.5t-4.5 -39t-1.5 -26q0 -16 4.5 -21t10.5 -5
q11 0 23 17t25 62l54 -16q-4 -21 -13 -48t-25 -51.5t-39.5 -40.5t-56.5 -16q-21 0 -40.5 8t-31.5 28t-12 55q0 20 2 31.5t4 28.5h-1q-23 -60 -52.5 -93t-61 -45.5t-60.5 -12.5q-32 0 -54 13.5t-33 39t-11 61.5q0 8 1 17.5t2 19.5h-1q-23 -60 -51.5 -93t-58 -45.5
t-58.5 -12.5z" />
    <glyph glyph-name="uni044A" unicode="&#x44a;" horiz-adv-x="481" 
d="M224 -11q-79 0 -131 41.5t-52 123.5q0 48 22.5 90.5t72 87.5t130.5 102l7 -8q-12 -5 -23 -7.5t-21 -2.5q-27 0 -51.5 8.5t-56.5 8.5q-28 0 -36.5 -18t-1.5 -59l-59 -8q-22 76 1.5 119.5t91.5 43.5q29 0 51.5 -7.5t44.5 -15.5t49 -8q19 0 36.5 7t33.5 20l43 -47
q-37 -34 -70 -68t-59 -69q10 2 21 3t21 1q46 0 81 -19.5t53.5 -56.5t12.5 -91q-5 -46 -33.5 -85t-74 -62.5t-103.5 -23.5zM232 62q36 0 55.5 23t25.5 75q6 50 -12.5 77.5t-58.5 28.5q-9 0 -17.5 -1.5t-19.5 -5.5q-19 -24 -29.5 -54.5t-10.5 -59.5q0 -22 7 -41t22 -30.5
t38 -11.5z" />
    <glyph glyph-name="uni044B" unicode="&#x44b;" horiz-adv-x="774" 
d="M615 -11q-21 0 -42.5 8.5t-35.5 30.5t-14 62q0 27 5 66.5t11 87t10.5 99.5t3.5 105q0 13 -0.5 26t-1.5 26h134q2 -21 2.5 -29.5t0.5 -18.5q0 -26 -3.5 -64t-9 -80t-11.5 -82.5t-9.5 -71.5t-3.5 -46q0 -16 4.5 -21t9.5 -5q11 0 23 17t25 62l55 -16q-4 -21 -16.5 -48
t-31.5 -51.5t-45.5 -40.5t-59.5 -16zM250 -10q-61 0 -97.5 21t-50.5 57.5t-9 80.5q5 42 9.5 76t8.5 61t7 48t4 36q2 26 -0.5 37t-11.5 11q-14 0 -26.5 -19.5t-23.5 -59.5l-54 16q7 27 20 54.5t32 50.5t44 37t57 14q43 0 64 -21.5t26.5 -57t-0.5 -78.5l-27 -195
q-7 -50 5.5 -73.5t46.5 -23.5q37 0 59 22.5t24 69.5q4 60 -15 86t-52 26q-25 0 -54.5 -11.5t-62.5 -31.5l8 58q33 23 69 35t70 12q44 0 79.5 -16t56.5 -49.5t18 -88.5q-2 -56 -31 -97.5t-78.5 -64t-114.5 -22.5z" />
    <glyph glyph-name="uni044C" unicode="&#x44c;" horiz-adv-x="510" 
d="M250 -10q-61 0 -97.5 21t-50.5 57.5t-9 80.5q5 42 9.5 76t8.5 61t7 48t4 36q2 26 -0.5 37t-11.5 11q-14 0 -26.5 -19.5t-23.5 -59.5l-54 16q7 27 20 54.5t32 50.5t44 37t57 14q43 0 64 -21.5t26.5 -57t-0.5 -78.5l-27 -195q-7 -50 5.5 -73.5t46.5 -23.5q37 0 59 22.5
t24 69.5q4 60 -15 86t-52 26q-25 0 -54.5 -11.5t-62.5 -31.5l8 58q33 23 69 35t70 12q44 0 79.5 -16t56.5 -49.5t18 -88.5q-2 -56 -31 -97.5t-78.5 -64t-114.5 -22.5z" />
    <glyph glyph-name="uni044D" unicode="&#x44d;" horiz-adv-x="544" 
d="M215 -16q-66 0 -108.5 19.5t-62.5 51t-19 66.5q2 29 20.5 52t50.5 23q38 0 52 -22t13 -43q-1 -9 -4.5 -21t-10.5 -23q15 -21 36.5 -29t49.5 -7q44 1 74.5 24t47.5 65t20 100q5 100 -27.5 143.5t-92.5 43.5q-33 0 -58.5 -11.5t-42 -32t-23.5 -49.5h-65l10 177h76l-5 -50
q34 27 72.5 40.5t76.5 13.5q59 0 109.5 -29t80 -85.5t24.5 -139.5q-4 -75 -40 -138t-100 -101t-154 -38zM165 224l4 69h215l2 -67z" />
    <glyph glyph-name="uni044E" unicode="&#x44e;" horiz-adv-x="795" 
d="M92 0q-2 15 -2.5 26.5t-0.5 21.5q0 21 2.5 49.5t6.5 62t8 66.5q3 27 6.5 52.5t6.5 48t4.5 39.5t1.5 26q0 14 -3 20t-11 6q-11 0 -23 -17t-25 -62l-55 16q5 21 16.5 48t31 51.5t46 40.5t60.5 16q28 0 48.5 -10.5t32 -36t11.5 -69.5q0 -20 -4.5 -55.5t-11 -79.5
t-11.5 -91.5t-5 -91.5q0 -22 1 -43t2 -34h-133zM509 -11q-67 0 -112 30.5t-67 82.5t-22 114q0 80 30.5 147t87 107.5t133.5 40.5q56 0 101.5 -26t72.5 -76t27 -121q0 -60 -17 -113.5t-50 -95.5t-79 -66t-105 -24zM525 55q26 0 44 20t29.5 51.5t17 66.5t6.5 66q1 27 -2 59
t-11 61t-24 47.5t-41 18.5q-30 1 -52.5 -26.5t-35 -73.5t-12.5 -101q0 -30 3.5 -63t13 -61.5t25 -46.5t39.5 -18zM162 216l6 70h203l-4 -68z" />
    <glyph glyph-name="uni044F" unicode="&#x44f;" horiz-adv-x="609" 
d="M443 -11q-56 0 -74 43.5t-8 108.5q11 72 17.5 120.5t9.5 80.5t5 53t3 38q-25 6 -47 6q-43 0 -71.5 -27.5t-29.5 -79.5q-1 -40 17 -64.5t55 -24.5q19 0 39.5 3.5t54.5 12.5l-4 -70q-41 -7 -78 -10t-72 -2l1 14q-55 11 -95 50.5t-39 103.5q2 43 24 74.5t57 52t76.5 30.5
t81.5 10q33 0 57 -1t48.5 -3t57.5 -5q0 -33 -4.5 -82.5t-11.5 -104.5t-14.5 -107t-12.5 -91q-2 -19 1.5 -27.5t10.5 -8.5q11 0 26 19.5t25 59.5l54 -16q-10 -34 -29 -70t-51 -60.5t-80 -25.5zM140 -10q-32 0 -57 14t-43 41.5t-30 67.5l50 18q11 -30 23 -47.5t26 -17.5
q8 0 14.5 7.5t12 23.5t11.5 41q8 30 26.5 52.5t54 31.5t92.5 -3l-10 -42q-14 0 -24 -5.5t-19 -23t-21 -53.5q-12 -38 -26 -61t-33.5 -33.5t-46.5 -10.5z" />
    <glyph glyph-name="uni0450" unicode="&#x450;" horiz-adv-x="470" 
d="M280 511q44 0 78 -13t53 -41t19 -72q0 -41 -24.5 -69.5t-64 -46.5t-86.5 -29.5t-91 -17.5q0 -57 13.5 -87.5t34.5 -42t42 -11.5q17 0 40.5 6.5t47.5 27.5t42 62l56 -27q-28 -65 -63 -100t-73 -48t-77 -13q-92 -1 -146 53t-54 165q0 48 15 101t45.5 99t78.5 75t114 29z
M269 445q-34 0 -55 -24t-32 -60.5t-15 -73.5q54 10 86 27t46.5 39t13.5 46q-1 25 -15 35.5t-29 10.5zM300 565l-114 107q-12 13 -19.5 30.5t-5 35.5t18.5 32q17 13 34 12.5t32 -10t24 -26.5l78 -140z" />
    <glyph glyph-name="uni0451" unicode="&#x451;" horiz-adv-x="470" 
d="M280 511q44 0 78 -13t53 -41t19 -72q0 -41 -24.5 -69.5t-64 -46.5t-86.5 -29.5t-91 -17.5q0 -57 13.5 -87.5t34.5 -42t42 -11.5q17 0 40.5 6.5t47.5 27.5t42 62l56 -27q-28 -65 -63 -100t-73 -48t-77 -13q-92 -1 -146 53t-54 165q0 48 15 101t45.5 99t78.5 75t114 29z
M269 445q-34 0 -55 -24t-32 -60.5t-15 -73.5q54 10 86 27t46.5 39t13.5 46q-1 25 -15 35.5t-29 10.5zM346 600q-26 0 -43.5 20t-17.5 50q0 33 21 57t49 24q27 0 43.5 -20.5t16.5 -49.5q0 -34 -20 -57.5t-49 -23.5zM172 600q-26 0 -43.5 20t-17.5 50q0 33 21 57t49 24
q27 0 43.5 -20.5t16.5 -49.5q0 -34 -20 -57.5t-49 -23.5z" />
    <glyph glyph-name="uni0452" unicode="&#x452;" horiz-adv-x="577" 
d="M289 -234q-28 0 -53 3.5t-63 13.5l19 64q19 -4 31 -6t31 -2q29 0 53 19t42 62.5t25 114.5q5 42 7.5 88t4 88.5t2 75.5t0.5 49q0 23 -6 33t-22 10q-18 0 -37 -19.5t-36.5 -52t-31.5 -72t-22 -79t-8 -73.5q0 -22 1 -46.5t2 -36.5h-128q-2 21 -2.5 29.5t-0.5 18.5
q0 49 2 104.5t5 112t7 110.5t8.5 101t8.5 83q2 17 5.5 45t7.5 48q-16 -1 -37.5 -1.5t-32.5 -1.5l4 76q47 0 78 5t49 12t25 13h54q-3 -29 -8 -69t-9 -77.5t-7 -57.5q-1 -12 -5 -41.5t-9.5 -67.5t-12 -75.5t-13.5 -66.5h1q25 68 59.5 105t69 51.5t58.5 14.5q63 0 86 -38.5
t26 -115.5q1 -15 0.5 -37t-2 -49.5t-3.5 -59t-4.5 -65t-5.5 -68.5q-6 -73 -33.5 -135t-72.5 -99.5t-107 -37.5zM50 531l4 66h402l-5 -63z" />
    <glyph glyph-name="uni0453" unicode="&#x453;" horiz-adv-x="443" 
d="M196 -16q-37 0 -75 12.5t-63 39.5t-25 69q0 34 16.5 61t52.5 54t92 60q35 21 56 40.5t22 48.5q1 23 -13 38t-42 15q-26 0 -49.5 -8.5t-44.5 -25.5t-43 -42l-48 36q44 59 103.5 94.5t133.5 35.5q52 0 82 -16.5t43.5 -42.5t13.5 -54q0 -52 -36.5 -85t-101.5 -69
q-49 -27 -72.5 -49.5t-25.5 -49.5q-2 -26 10 -41t30 -21t35 -6q68 0 133 79l48 -39q-25 -34 -56.5 -64.5t-74.5 -50t-101 -19.5zM172 565l-44 41l89 140q11 17 28 27t35 10t32 -13q16 -14 17.5 -32.5t-7 -36.5t-23.5 -30z" />
    <glyph glyph-name="uni0454" unicode="&#x454;" horiz-adv-x="467" 
d="M109 221l3 60h221l-3 -56zM273 511q46 0 82.5 -15t58 -41.5t21.5 -63.5q0 -30 -17.5 -49t-46.5 -20q-34 -1 -48 20.5t-14 38.5q0 9 2.5 20.5t7.5 21.5q-4 9 -17 15.5t-31 6.5q-32 0 -52.5 -21.5t-32 -54.5t-16.5 -69.5t-6 -66.5q-2 -54 10 -87t32 -48t41 -17
q19 -1 43 5.5t49 29t45 69.5l57 -28q-28 -65 -63 -101.5t-74 -51t-81 -15.5q-88 1 -142 54t-54 164q0 48 15 101t45.5 99t76.5 75t109 29z" />
    <glyph glyph-name="uni0455" unicode="&#x455;" horiz-adv-x="446" 
d="M200 -11q-48 0 -88.5 14t-65.5 40.5t-25 61.5q0 31 18.5 50.5t45.5 19.5t44 -18t17 -44q0 -7 -1.5 -14.5t-4.5 -15.5q5 -10 26.5 -19t36.5 -9q44 0 61.5 19t17.5 43q0 19 -14.5 33.5t-37.5 28.5t-49 29q-47 27 -78 50t-45.5 48.5t-14.5 60.5t22 68t64.5 54.5t103.5 21.5
q40 0 78.5 -13t64 -37.5t25.5 -59.5q0 -26 -17 -46t-46 -20q-27 0 -43.5 18.5t-16.5 42.5q0 8 1.5 15t4.5 14q-8 11 -24.5 15.5t-30.5 4.5t-29.5 -6t-26.5 -17.5t-11 -28.5q0 -14 6.5 -24.5t26.5 -24t60 -37.5q33 -19 67.5 -41t58 -51.5t23.5 -71.5q0 -45 -27 -80t-73 -54.5
t-104 -19.5z" />
    <glyph glyph-name="uni0456" unicode="&#x456;" horiz-adv-x="344" 
d="M156 511q52 0 72.5 -31.5t20.5 -84.5q0 -24 -5 -65t-11 -86t-11 -82t-5 -54q0 -16 5 -21t10 -5q12 0 24 17t25 62l54 -16q-4 -21 -15.5 -48t-30.5 -51.5t-45.5 -40.5t-60.5 -16q-55 0 -75.5 30t-20.5 83q0 29 5 69t11.5 82t11.5 78.5t5 60.5q0 17 -5 21.5t-11 4.5
q-11 0 -23 -17t-25 -62l-54 16q4 21 16 48t31.5 51.5t46 40.5t60.5 16zM191 763q33 0 53.5 -24t18.5 -59q-1 -34 -23 -57.5t-55 -23.5q-34 0 -54.5 23.5t-19.5 57.5q2 35 26 59t54 24z" />
    <glyph glyph-name="uni0457" unicode="&#x457;" horiz-adv-x="344" 
d="M156 511q52 0 72.5 -31.5t20.5 -84.5q0 -24 -5 -65t-11 -86t-11 -82t-5 -54q0 -16 5 -21t10 -5q12 0 24 17t25 62l54 -16q-4 -21 -15.5 -48t-30.5 -51.5t-45.5 -40.5t-60.5 -16q-55 0 -75.5 30t-20.5 83q0 29 5 69t11.5 82t11.5 78.5t5 60.5q0 17 -5 21.5t-11 4.5
q-11 0 -23 -17t-25 -62l-54 16q4 21 16 48t31.5 51.5t46 40.5t60.5 16zM268 600q-26 0 -43.5 20t-17.5 50q0 33 21 57t49 24q27 0 43.5 -20.5t16.5 -49.5q0 -34 -20 -57.5t-49 -23.5zM94 600q-26 0 -43.5 20t-17.5 50q0 33 21 57t49 24q27 0 43.5 -20.5t16.5 -49.5
q0 -34 -20 -57.5t-49 -23.5z" />
    <glyph glyph-name="uni0458" unicode="&#x458;" horiz-adv-x="313" 
d="M157 511q52 0 74 -31.5t23 -84.5q1 -51 -2 -121.5t-9 -139.5q-5 -53 -14 -109.5t-26 -109t-45 -94.5t-69 -67t-99 -25q-46 0 -72 20.5t-26 53.5q0 12 6 27t20 26t37 10q22 -1 38.5 -19.5t10.5 -49.5q4 -2 15 -2q17 0 30.5 20.5t23.5 54t17.5 73t12.5 79t8 72t4 51.5
q5 66 7.5 133.5t2.5 113.5q0 17 -5 21.5t-10 4.5q-11 0 -23 -17t-25 -62l-55 16q5 21 16 48t29.5 51.5t44.5 40.5t60 16zM196 763q33 0 53.5 -24t18.5 -59q-1 -34 -23 -57.5t-56 -23.5t-54 23.5t-19 57.5q2 35 26 59t54 24z" />
    <glyph glyph-name="uni0459" unicode="&#x459;" horiz-adv-x="800" 
d="M83 -11q-37 0 -60 22t-23 53q0 30 20 50t44 20q25 0 41 -13.5t16 -36.5v-6t-1 -6q24 6 44.5 29.5t37.5 59.5t30.5 80t24 92.5t18.5 97.5l-92 -1l6 70h354q2 -21 2.5 -29.5t0.5 -18.5q0 -15 -1 -31t-4 -41t-8 -67q20 7 39 11t38 4q44 0 79.5 -16t56.5 -49.5t18 -88.5
q-2 -56 -31 -97.5t-78.5 -64t-114.5 -22.5q-61 0 -97.5 21t-50.5 57.5t-9 80.5q6 55 12 93t10 68t6 58.5t1 63.5l-29 -1q-8 -1 -14.5 -5.5t-11.5 -14.5q-17 -85 -40 -161t-55 -135t-76 -92.5t-103 -33.5zM564 62q37 0 59.5 22.5t23.5 69.5q4 60 -15 86t-52 26q-25 0 -55 -12
l-13 -95q-7 -50 6 -73.5t46 -23.5z" />
    <glyph glyph-name="uni045A" unicode="&#x45a;" horiz-adv-x="779" 
d="M519 -10q-61 0 -97.5 21t-50.5 57.5t-9 80.5l9 68l-138 -1q-4 -34 -7.5 -70t-3.5 -69q0 -22 1 -43t2 -34h-133q-2 15 -2.5 26.5t-0.5 21.5q0 23 3 56.5t7.5 71.5t9.5 74q3 24 6 45.5t5 40.5t3.5 33t1.5 23q0 14 -3 20t-11 6q-11 0 -23 -17t-25 -62l-55 16q5 21 16.5 48
t31 51.5t46 40.5t60.5 16q28 0 48.5 -10.5t32 -36t11.5 -69.5q0 -16 -3.5 -45t-8.5 -64h138q5 41 8.5 78t4 71t-4.5 65h134q2 -21 2.5 -29.5t0.5 -18.5q0 -15 -1 -31t-4 -41t-8 -67q20 7 39 11t38 4q44 0 79.5 -16t56.5 -49.5t18 -88.5q-2 -56 -31 -97.5t-78.5 -64
t-114.5 -22.5zM543 62q37 0 59.5 22.5t23.5 69.5q4 60 -15 86t-52 26q-25 0 -57 -13q1 -6 0 -13l-2 -14l-9 -67q-7 -50 6 -73.5t46 -23.5z" />
    <glyph glyph-name="uni045B" unicode="&#x45b;" horiz-adv-x="621" 
d="M464 -11q-55 0 -75 30t-20 83q0 37 3.5 74t8.5 76.5t11 83.5q2 15 -2 24.5t-12 14t-19 4.5q-18 0 -37 -19.5t-36.5 -52t-31.5 -72t-22 -79t-8 -73.5q0 -22 1 -46.5t2 -36.5h-128q-2 21 -2.5 29.5t-0.5 18.5q0 49 2 104.5t5 112t7 110.5t8.5 101t8.5 83q2 17 5.5 45
t7.5 48q-16 -1 -37.5 -1.5t-32.5 -1.5l4 76q47 0 78 5t49 12t25 13h54q-3 -29 -8 -69t-9 -77.5t-7 -57.5q-1 -11 -5 -40.5t-9.5 -67.5t-12 -76t-13.5 -67h1q25 68 59.5 105t69 51.5t58.5 14.5q64 0 92 -42.5t19 -111.5q-5 -48 -9.5 -89t-6.5 -72t-2 -48q0 -16 5 -21t10 -5
q11 0 23.5 17t25.5 62l54 -16q-4 -21 -15.5 -48t-30.5 -51.5t-45 -40.5t-60 -16zM49 525l4 72h402l-5 -69z" />
    <glyph glyph-name="uni045C" unicode="&#x45c;" horiz-adv-x="642" 
d="M463 -11q-49 0 -75 29.5t-29 90.5q-3 62 -15.5 90t-43.5 28l-129 -1l1 63h177v-20q59 -3 89.5 -33t35.5 -89q3 -43 10.5 -56t17.5 -12q10 0 21.5 16t26.5 66l54 -16q-4 -33 -20 -69.5t-46 -61.5t-75 -25zM92 0q-2 15 -2.5 26.5t-0.5 21.5q0 26 3.5 64t9 80t11 82.5
t9 71.5t3.5 46q0 14 -3 20t-11 6q-11 0 -23 -17t-25 -62l-55 16q5 21 17 48t31.5 51.5t47 40.5t63.5 16q38 0 62.5 -25t24.5 -91q0 -20 -4.5 -55.5t-11 -79.5t-11.5 -91.5t-5 -91.5q0 -22 1 -43t2 -34h-133zM251 251l15 38q36 0 62 17t42 69q20 66 55 101t79 35
q35 0 58 -19.5t23 -52.5q0 -28 -16.5 -49.5t-47.5 -21.5q-20 0 -36 10.5t-19 30.5q-14 -10 -22 -21.5t-19 -35.5q-22 -46 -47.5 -68t-69.5 -22zM277 565l-44 41l89 140q11 17 28 27t35 10t32 -13q16 -14 17.5 -32.5t-7 -36.5t-23.5 -30z" />
    <glyph glyph-name="uni045D" unicode="&#x45d;" horiz-adv-x="598" 
d="M211 -11q-42 0 -68.5 19t-39 53.5t-12.5 81.5q0 37 6.5 81l13 88t6.5 80q0 17 -5.5 21.5t-10.5 4.5q-11 0 -23 -17t-25 -62l-54 16q4 21 15.5 48t30.5 51.5t45 40.5t60 16q56 0 75.5 -30t19.5 -83q0 -30 -4 -67.5t-9 -76.5t-9 -73.5t-4 -57.5q0 -15 3 -24.5t9 -13.5
t16 -4q17 0 35.5 22t35.5 59.5t31 83t22.5 93t8.5 89.5q0 14 -0.5 37t-2.5 35h129q2 -21 2.5 -29.5t0.5 -18.5q0 -21 -2.5 -50.5t-6.5 -63.5t-9 -68q-3 -27 -6.5 -52t-6.5 -46.5t-4.5 -38t-1.5 -25.5q0 -16 4.5 -21t9.5 -5q11 0 23 17t25 62l54 -16q-4 -21 -13 -48
t-25 -51.5t-39 -40.5t-56 -16q-32 0 -58 19t-26 72q0 20 2 34t3 31h-1q-23 -60 -50 -94t-56 -48t-58 -14zM345 565l-114 107q-12 13 -19.5 30.5t-5 35.5t18.5 32q17 13 34 12.5t32 -10t24 -26.5l78 -140z" />
    <glyph glyph-name="uni045E" unicode="&#x45e;" horiz-adv-x="561" 
d="M123 -271q-46 0 -70.5 22t-24.5 56q0 32 20.5 51t43.5 19q53 0 61 -54q2 -1 5 -1h5q17 0 35.5 13t35.5 32t30.5 38.5t19.5 33.5q-7 48 -23 103.5t-36.5 113t-42.5 111t-41 97.5q-7 16 -18.5 35t-28.5 19q-13 0 -26.5 -14t-18.5 -61l-56 8q2 22 10.5 49t26 52.5t45 42
t67.5 16.5q33 0 56.5 -15.5t40 -39.5t26.5 -49q14 -34 34 -88t38.5 -117.5t29.5 -128.5h1q21 46 35 89t22.5 82t10.5 72q1 11 0 34.5t-12 35.5q-4 -1 -7 -1h-7q-25 0 -43 17t-18 41q0 35 22 51.5t47 16.5q37 0 59.5 -21t32.5 -53t10 -66q0 -43 -14 -104t-39.5 -129.5
t-59.5 -135.5q-38 -73 -84 -135.5t-97 -100t-103 -37.5zM278 585q-34 0 -65.5 11t-51 32.5t-16.5 53.5q3 29 22 43t40 14q33 1 44.5 -18.5t11.5 -33.5q-1 -7 -4 -16t-10 -19q9 -7 22 -11t27 -4q39 0 68 23q14 11 24 26.5t18 34.5l52 -37q-37 -49 -83.5 -74t-98.5 -25z" />
    <glyph glyph-name="uni045F" unicode="&#x45f;" horiz-adv-x="598" 
d="M245 -257l-33 34q24 22 31 45.5t9 48t10 49.5t34 50l34 31l36 -36l-21 -23q-10 -11 -7.5 -27t0.5 -42q-3 -40 -26 -67.5t-67 -62.5zM211 -11q-42 0 -68.5 19t-39 53.5t-12.5 81.5q0 37 6.5 81l13 88t6.5 80q0 17 -5.5 21.5t-10.5 4.5q-11 0 -23 -17t-25 -62l-54 16
q4 21 15.5 48t30.5 51.5t45 40.5t60 16q56 0 75.5 -30t19.5 -83q0 -30 -4 -67.5t-9 -76.5t-9 -73.5t-4 -57.5q0 -15 3 -24.5t9 -13.5t16 -4q17 0 35.5 22t35.5 59.5t31 83t22.5 93t8.5 89.5q0 14 -0.5 37t-2.5 35h129q2 -21 2.5 -29.5t0.5 -18.5q0 -21 -2.5 -50.5
t-6.5 -63.5t-9 -68q-3 -27 -6.5 -52t-6.5 -46.5t-4.5 -38t-1.5 -25.5q0 -16 4.5 -21t9.5 -5q11 0 23 17t25 62l54 -16q-4 -21 -13 -48t-25 -51.5t-39 -40.5t-56 -16q-32 0 -58 19t-26 72q0 20 2 34t3 31h-1q-23 -60 -50 -94t-56 -48t-58 -14z" />
    <glyph glyph-name="uni0490" unicode="&#x490;" horiz-adv-x="566" 
d="M35 0l4 66q22 1 38 6t25.5 23t11.5 58l20 383q2 27 4.5 52t4.5 38l-75 -3l4 77h315q27 0 56 9.5t50 37.5t24 82h60l-10 -195h-218q-21 0 -36.5 -5.5t-24.5 -24t-11 -57.5l-20 -383q-1 -27 -3.5 -52t-4.5 -38l88 3l-4 -77h-298z" />
    <glyph glyph-name="uni0491" unicode="&#x491;" horiz-adv-x="481" 
d="M24 0l4 65q28 0 41 11t17.5 31.5t5.5 46.5l10 185q1 14 3 40t5 48q-16 -1 -35 -2t-30 -1l4 76h269q30 0 50.5 12t31.5 35.5t13 59.5h65l-13 -172h-157q-42 0 -52 -24.5t-12 -64.5l-10 -185q-1 -14 -3 -39.5t-5 -48.5l65 3l-4 -76h-263z" />
    <glyph glyph-name="uni04B0" unicode="&#x4b0;" horiz-adv-x="665" 
d="M141 200v79h401v-76zM190 0l4 66q23 1 39 6t25.5 23t11.5 58l4 87l-169 291q-13 23 -23.5 51t-9.5 44q-16 -1 -27 -1.5t-22 -1.5l4 77h292l-3 -66q-29 2 -48.5 -6t-24 -25.5t9.5 -45.5q17 -31 35 -62t35 -63q4 -8 13 -25.5t18.5 -37t13.5 -34.5h2q5 12 18.5 36t32.5 62
q14 26 29 51.5t29 50.5q6 11 16 28.5t21 35t20 27.5q-16 -1 -41 -1.5t-36 -1.5l4 77h221l-3 -66q-35 -5 -61 -28.5t-58 -78.5l-144 -250l-5 -113q-1 -27 -4 -52t-5 -38q11 1 27 1.5t31 1t22 0.5l-4 -77h-290z" />
    <glyph glyph-name="uni04B1" unicode="&#x4b1;" horiz-adv-x="517" 
d="M81 0l3 66l402 -3l-3 -63h-402zM139 -255v65q38 0 47.5 25.5t15.5 64.5q7 46 5.5 86t-12.5 93q-12 58 -27 111.5t-32.5 104.5t-37.5 98q-8 20 -16 29t-19 6q-11 -4 -12 -28.5t6 -72.5l-71 -8q-9 46 -8 84.5t12.5 66.5t37 43t66.5 15t66.5 -21t41 -50t24.5 -53
q11 -30 24 -75t25.5 -95.5t22 -96.5t13.5 -76h2q22 47 40.5 99t31 104.5t14.5 98.5v22v21q-7 -7 -18 -9.5t-22 -2.5q-22 0 -40.5 16t-18.5 50q0 36 23 52t55 16t54.5 -17t34.5 -49.5t12 -78.5q0 -69 -16.5 -132t-45.5 -124t-66 -127l-8 -66t-8 -62.5t-9 -53.5l66 3v-76h-253
z" />
    <glyph glyph-name="uni2116" unicode="&#x2116;" horiz-adv-x="1079" 
d="M566 -10l-298 411q-12 17 -25 36t-26 39h-1l-14 -312q-1 -27 -4 -52t-5 -38q17 2 41 2.5t35 0.5l-5 -77h-228l4 66q23 1 39 6t25.5 23t11.5 58l17 383q2 27 4.5 52t4.5 38q-16 -1 -40.5 -1.5t-35.5 -1.5l5 77h157l285 -387q23 -32 38.5 -55.5t26.5 -40.5h1l16 319
q2 27 4.5 52t4.5 38q-16 -1 -40.5 -1.5t-35.5 -1.5l5 77h227l-3 -66q-23 -1 -39 -6t-25.5 -22.5t-11.5 -58.5l-30 -557h-85zM921 625q56 0 96.5 -40t40.5 -112q0 -51 -20.5 -97t-58.5 -74.5t-90 -28.5q-46 0 -76.5 21.5t-46 57t-15.5 77.5q0 53 21 97.5t59.5 71.5t89.5 27z
M913 575q-25 0 -41 -38t-16 -98q0 -34 4 -59.5t13.5 -39.5t23.5 -14q19 0 31 18.5t18.5 48.5t6.5 66q0 37 -4 62.5t-12.5 39.5t-23.5 14zM752 126l4 93h284l-4 -90z" />
    <glyph glyph-name="uni0414.loclBGR" horiz-adv-x="695" 
d="M-20 -177l12 251q29 0 47.5 10t34 34t33.5 65l223 535h67l185 -545q5 -15 13.5 -45t9.5 -53l72 2l-12 -254h-73q4 52 -1 92t-22.5 62.5t-53.5 22.5h-358q-55 0 -78.5 -49.5t-25.5 -127.5h-73zM147 74h248q28 0 39.5 10t11 28.5t-8.5 41.5l-78 251q-9 30 -17 69.5
t-13 67.5h-2q-5 -17 -16.5 -51t-29.5 -81l-99 -252q-5 -13 -15.5 -40t-19.5 -44z" />
    <glyph glyph-name="uni041B.loclBGR" horiz-adv-x="667" 
d="M-12 0l4 69q28 0 45.5 16t30.5 42t26 56l223 535h67l185 -545q5 -15 13.5 -45.5t9.5 -53.5l57 3l-3 -77h-268l4 66q28 0 39.5 12t11 32.5t-8.5 43.5l-78 251q-10 36 -18.5 72.5t-11.5 64.5h-3q-4 -17 -15 -51t-30 -81l-99 -252q-5 -13 -15.5 -38.5t-20.5 -42.5l74 3
l-5 -80h-214z" />
    <glyph glyph-name="uni0424.loclBGR" horiz-adv-x="860" 
d="M267 -137l4 66q29 2 47 10t25 48q-77 9 -135 39.5t-96 77t-56 106t-16 126.5q2 74 28 139t71.5 115.5t107.5 83t137 41.5q2 12 3 21.5t2 16.5l-75 -3l4 77h284l-3 -66q-28 -1 -45.5 -8.5t-25.5 -42.5q74 -13 130.5 -47.5t95 -84t57.5 -110t17 -125.5q-1 -66 -26.5 -125
t-70.5 -106.5t-107 -79t-137 -43.5q-1 -16 -2.5 -30t-3.5 -22l75 3l-4 -77h-285zM348 57l31 591q-55 -13 -95.5 -51.5t-63 -101t-25.5 -147.5q-2 -83 15.5 -143t52.5 -96.5t85 -51.5zM490 54q56 11 96 43.5t62.5 88.5t24.5 140q3 85 -14 149t-51.5 105.5t-86.5 59.5z" />
    <glyph glyph-name="uni0431.loclSRB" horiz-adv-x="532" 
d="M263 -16q-60 0 -108 25.5t-74.5 75.5t-22.5 123q3 54 20 96.5t45 72t63 44.5v4q20 7 46 8.5t49 -0.5l-2 -36q-25 0 -40.5 -19.5t-24.5 -49.5t-12.5 -62.5t-4.5 -58.5q-1 -43 4 -73t15.5 -49t25 -27.5t31.5 -8.5q31 0 50.5 24t29.5 65.5t10 94.5q0 25 -6 48.5t-19 45
t-36 39.5t-58 31q-57 22 -94.5 51.5t-55 65.5t-15.5 79q3 45 28 81.5t67.5 58.5t96.5 22q41 0 71.5 -10.5t66.5 -10.5q27 0 42 4t29 22l29 -16q-18 -67 -44 -99t-73 -32q-36 0 -67 9t-59.5 18t-59.5 9q-27 0 -43.5 -13t-17.5 -39q0 -20 12 -35t43.5 -29.5t89.5 -33.5
q68 -22 110.5 -53.5t65 -67t30 -71t5.5 -67.5q-3 -57 -22 -104t-51 -81t-73.5 -52.5t-91.5 -18.5z" />
    <glyph glyph-name="uni0432.loclBGR" horiz-adv-x="549" 
d="M266 -16q-94 0 -146.5 50.5t-47.5 165.5l14 315q4 87 36 140.5t84 77.5t115 24q52 0 88.5 -24.5t55 -66t15.5 -93.5q-1 -31 -13.5 -61.5t-33 -56t-47 -41t-56.5 -15.5v-1v-1q36 0 68.5 -11t56.5 -34.5t36.5 -61t9.5 -90.5q-3 -67 -35.5 -115.5t-84.5 -74.5t-115 -26z
M275 49q23 0 41.5 12.5t31 44t14.5 87.5q3 57 -3.5 91.5t-32 50.5t-82.5 16h-2h-3l4 79h6q29 0 48.5 16.5t31 43t17.5 57.5t7 59q2 30 -6.5 48.5t-22.5 27.5t-30 9t-31.5 -9t-26 -32.5t-12.5 -69.5l-18 -379q-3 -67 11 -109.5t58 -42.5z" />
    <glyph glyph-name="uni0433.loclSRB" horiz-adv-x="344" 
d="M156 511q52 0 72.5 -31.5t20.5 -84.5q0 -24 -5 -65t-11 -86t-11 -82t-5 -54q0 -16 5 -21t10 -5q12 0 24 17t25 62l54 -16q-4 -21 -15.5 -48t-30.5 -51.5t-45.5 -40.5t-60.5 -16q-55 0 -75.5 30t-20.5 83q0 29 5 69t11.5 82t11.5 78.5t5 60.5q0 17 -5 21.5t-11 4.5
q-11 0 -23 -17t-25 -62l-54 16q4 21 16 48t31.5 51.5t46 40.5t60.5 16zM41 629l4 93h284l-4 -90z" />
    <glyph glyph-name="uni0453.loclMKD" horiz-adv-x="344" 
d="M156 511q52 0 72.5 -31.5t20.5 -84.5q0 -24 -5 -65t-11 -86t-11 -82t-5 -54q0 -16 5 -21t10 -5q12 0 24 17t25 62l54 -16q-4 -21 -15.5 -48t-30.5 -51.5t-45.5 -40.5t-60.5 -16q-55 0 -75.5 30t-20.5 83q0 29 5 69t11.5 82t11.5 78.5t5 60.5q0 17 -5 21.5t-11 4.5
q-11 0 -23 -17t-25 -62l-54 16q4 21 16 48t31.5 51.5t46 40.5t60.5 16zM41 629l4 93h284l-4 -90zM137 736l-44 41l89 140q11 17 28 27t35 10t32 -13q16 -14 17.5 -32.5t-7 -36.5t-23.5 -30z" />
    <glyph glyph-name="uni0434.loclBGR" horiz-adv-x="520" 
d="M182 -271q-37 0 -67 6.5t-51.5 19.5t-33 32.5t-11.5 44.5q0 15 7 32t21.5 29t38.5 12q27 0 45 -17t18 -46q0 -16 -6 -30q5 -7 21 -12t27 -5q40 0 62 22.5t32.5 61.5t16.5 88q7 53 14.5 92t19.5 79h-1q-19 -44 -39 -73t-41.5 -45.5t-44 -23.5t-45.5 -7q-36 0 -67.5 19.5
t-51 60t-19.5 102.5q0 69 16.5 130.5t52 108.5t90.5 74t131 27q28 0 70.5 -5.5t82.5 -15.5q-2 -36 -5.5 -93.5t-8 -123.5t-9.5 -127.5t-9 -105.5q-8 -94 -35.5 -164t-81 -108.5t-139.5 -38.5zM206 78q22 0 41 22.5t34.5 61t27.5 86t20 97t10 94.5q-6 2 -19.5 4t-26.5 2
q-34 0 -59 -18.5t-40.5 -54.5t-23 -87.5t-7.5 -118.5q0 -27 5.5 -47t15.5 -30.5t22 -10.5z" />
    <glyph glyph-name="uni0434.loclSRB" horiz-adv-x="520" 
d="M182 -271q-37 0 -67 6.5t-51.5 19.5t-33 32.5t-11.5 44.5q0 15 7 32t21.5 29t38.5 12q27 0 45 -17t18 -46q0 -16 -6 -30q5 -7 21 -12t27 -5q40 0 62 22.5t32.5 61.5t16.5 88q7 53 14.5 92t19.5 79h-1q-19 -44 -39 -73t-41.5 -45.5t-44 -23.5t-45.5 -7q-36 0 -67.5 19.5
t-51 60t-19.5 102.5q0 69 16.5 130.5t52 108.5t90.5 74t131 27q28 0 70.5 -5.5t82.5 -15.5q-2 -36 -5.5 -93.5t-8 -123.5t-9.5 -127.5t-9 -105.5q-8 -94 -35.5 -164t-81 -108.5t-139.5 -38.5zM206 78q22 0 41 22.5t34.5 61t27.5 86t20 97t10 94.5q-6 2 -19.5 4t-26.5 2
q-34 0 -59 -18.5t-40.5 -54.5t-23 -87.5t-7.5 -118.5q0 -27 5.5 -47t15.5 -30.5t22 -10.5z" />
    <glyph glyph-name="uni0436.loclBGR" horiz-adv-x="929" 
d="M156 -11q-34 0 -63 15t-46.5 42t-17.5 63q0 27 14 44t40 17q23 0 39 -14t16 -31t-7 -28t-22 -20q4 -21 14.5 -31t27.5 -10q24 0 40 24.5t25.5 61.5t14 76t5.5 69q2 82 -18 124.5t-50 42.5q-22 0 -47 -26.5t-46 -81.5l-49 22q22 65 48 100t56 49t63 14q73 -1 112.5 -52
t43.5 -150v-11v-12h55q2 41 6.5 95.5t9.5 110t10.5 99t9.5 61.5l-70 -3l4 76q47 0 78 5t49 12t25 13h54l-8 -68l-8 -68l-8 -68q-7 -63 -13 -130t-11 -135h54q9 64 33.5 114.5t63.5 80.5t90 30q52 0 89.5 -32.5t37.5 -87.5q0 -27 -13.5 -44t-39.5 -17q-24 0 -40 14t-16 31
t7 28t22 20q-4 21 -14.5 31t-27.5 10q-24 0 -40 -24.5t-25.5 -61t-14 -76t-5.5 -69.5q-1 -82 19 -124.5t49 -42.5q23 0 47.5 26.5t45.5 81.5l49 -22q-21 -65 -47.5 -100t-56 -48.5t-63.5 -14.5q-73 1 -112 52t-43 152q-1 6 -1 12v13l-52 -1q-2 -34 -3 -68t-1 -66
q0 -22 1 -46.5t2 -36.5h-128q-2 21 -2.5 29.5t-0.5 18.5q0 39 1.5 82t2.5 87l-56 -1q-9 -64 -34 -115.5t-63.5 -81.5t-90.5 -30z" />
    <glyph glyph-name="uni0437.loclBGR" horiz-adv-x="455" 
d="M180 -271q-70 0 -116.5 22.5t-68.5 56.5t-20 68q2 30 21 52.5t50 23.5q26 1 39.5 -10t18.5 -26t4 -28q-2 -20 -21 -43q9 -21 25 -35t50 -15q62 -1 95 46t33 122q0 38 -11 76t-42.5 63.5t-92.5 25.5q-7 0 -17 0.5t-19 -0.5l2 69h38q46 0 74.5 19.5t42.5 52t14 70.5
q1 40 -15.5 70t-62.5 30q-28 0 -49 -15t-35 -38.5t-21 -51.5h-65l10 177h76l-5 -50q26 27 61.5 40.5t73.5 13.5q59 0 93.5 -24t49.5 -62t14 -81q-2 -70 -47.5 -118t-117.5 -62v-2q57 -3 99.5 -25.5t66 -66t23.5 -110.5q0 -64 -29.5 -117.5t-85 -85.5t-133.5 -32z" />
    <glyph glyph-name="uni043A.loclBGR" horiz-adv-x="518" 
d="M370 -11q-44 0 -72 28t-55 101q-10 27 -18 48t-19 28q-4 3 -8.5 4.5t-9.5 -0.5q-6 -28 -9 -66.5t-3 -64.5q0 -13 1 -33t2 -34h-130q-2 21 -2.5 30t-0.5 19q0 11 1.5 45.5t4.5 85.5t8 113.5t11.5 130.5t15.5 135q2 20 6.5 45.5t8.5 47.5q-16 -1 -38.5 -1.5t-33.5 -1.5
l4 76q47 0 78 5t49.5 12t25.5 13h54q-5 -36 -10.5 -74.5t-10.5 -78t-10 -81.5q-4 -41 -9.5 -72t-10.5 -58h1q22 44 49.5 70.5t56 38t54.5 11.5q37 0 61 -13t35.5 -36.5t11.5 -56.5q0 -30 -17.5 -67t-59 -69t-113.5 -47v-1q42 -1 60.5 -21.5t26.5 -41.5q10 -21 17.5 -37
t15 -24.5t15.5 -8.5q11 0 21.5 15t21.5 54l54 -17q-7 -36 -24.5 -70.5t-44 -57.5t-62.5 -23zM195 262q74 0 109 37.5t35 101.5q0 13 -2.5 23t-8.5 15.5t-15 5.5q-16 0 -39.5 -21t-45 -62t-33.5 -100z" />
    <glyph glyph-name="uni043B.loclBGR" horiz-adv-x="487" 
d="M-18 0l3 64q23 4 41.5 25.5t32.5 48t23 46.5l143 319h67l137 -347q13 -31 17 -47.5t5 -34.5l37 2l-4 -76h-223l3 64q21 1 29 12t7 28.5t-8 37.5l-46 143q-6 19 -12 37t-12 37h-1q-7 -18 -14 -36.5t-14 -36.5l-55 -143q-10 -25 -17.5 -40t-17.5 -30l62 3l-4 -76h-179z" />
    <glyph glyph-name="uni043F.loclSRB" horiz-adv-x="598" 
d="M211 -11q-42 0 -68.5 19t-39 53.5t-12.5 81.5q0 37 6.5 81l13 88t6.5 80q0 17 -5.5 21.5t-10.5 4.5q-11 0 -23 -17t-25 -62l-54 16q4 21 15.5 48t30.5 51.5t45 40.5t60 16q56 0 75.5 -30t19.5 -83q0 -30 -4 -67.5t-9 -76.5t-9 -73.5t-4 -57.5q0 -15 3 -24.5t9 -13.5
t16 -4q17 0 35.5 22t35.5 59.5t31 83t22.5 93t8.5 89.5q0 14 -0.5 37t-2.5 35h129q2 -21 2.5 -29.5t0.5 -18.5q0 -21 -2.5 -50.5t-6.5 -63.5t-9 -68q-3 -27 -6.5 -52t-6.5 -46.5t-4.5 -38t-1.5 -25.5q0 -16 4.5 -21t9.5 -5q11 0 23 17t25 62l54 -16q-4 -21 -13 -48
t-25 -51.5t-39 -40.5t-56 -16q-32 0 -58 19t-26 72q0 20 2 34t3 31h-1q-23 -60 -50 -94t-56 -48t-58 -14zM164 629l4 93h284l-4 -90z" />
    <glyph glyph-name="uni0442.loclSRB" horiz-adv-x="878" 
d="M145 599l4 73h644l-4 -70zM219 -11q-42 0 -68.5 19t-39 53.5t-12.5 81.5q0 37 6.5 81t12.5 88t6 80q0 17 -5 21.5t-11 4.5q-11 0 -23 -17t-25 -62l-54 16q4 21 15.5 48t30.5 51.5t45 40.5t60 16q56 0 75 -30t19 -83q0 -30 -4 -67.5t-8.5 -76.5t-8.5 -73.5t-4 -57.5
q0 -15 3 -24.5t9 -13.5t16 -4q18 0 37 21.5t36.5 58t31.5 81.5t22 92t8 89q0 14 -1 36t-3 41h130q2 -21 2.5 -39.5t0.5 -27.5q0 -43 -3.5 -87.5t-8.5 -87t-8.5 -77.5t-3.5 -58q0 -22 6.5 -32t21.5 -10q18 0 37.5 22t37.5 59.5t32.5 83t23 93t8.5 89.5q0 14 -1 37t-2 35h129
q2 -21 2.5 -29.5t0.5 -18.5q0 -21 -2.5 -50t-6.5 -62t-9 -67q-3 -27 -6.5 -52.5t-6.5 -47.5t-4.5 -39t-1.5 -26q0 -16 4.5 -21t10.5 -5q11 0 23 17t25 62l54 -16q-4 -21 -13 -48t-25 -51.5t-39.5 -40.5t-56.5 -16q-21 0 -40.5 8t-31.5 28t-12 55q0 20 2 31.5t4 28.5h-1
q-23 -60 -52.5 -93t-61 -45.5t-60.5 -12.5q-32 0 -54 13.5t-33 39t-11 61.5q0 8 1 17.5t2 19.5h-1q-23 -60 -51.5 -93t-58 -45.5t-58.5 -12.5z" />
    <glyph glyph-name="uni0447.loclBGR" horiz-adv-x="610" 
d="M222 130q-65 0 -91.5 49t-18.5 122q3 20 5.5 36t3.5 29.5t1 23.5q-1 14 -3.5 21t-7.5 7q-11 0 -23 -17t-25 -62l-55 16q5 21 17 48t32 51.5t48 40.5t65 16q33 0 50.5 -17t23.5 -49q4 -18 4 -40.5t-1.5 -48.5t-5.5 -55q-4 -40 3.5 -59.5t35.5 -19.5q23 0 49.5 11t47 26.5
t22.5 28.5l-9 -86q-37 -36 -80.5 -54t-87.5 -18zM450 -11q-20 0 -41 8.5t-35 31.5t-14 66q0 25 4.5 62.5t10.5 84t10.5 97.5t4.5 103q0 14 -0.5 29t-1.5 29h134q2 -21 2.5 -29.5t0.5 -18.5q0 -26 -3.5 -64t-9 -80t-11.5 -82.5t-9.5 -71.5t-3.5 -46q0 -16 4.5 -21t9.5 -5
q11 0 23 17t25 62l54 -16q-4 -21 -16 -48t-31.5 -51.5t-46 -40.5t-60.5 -16z" />
    <glyph glyph-name="uni044E.loclBGR" horiz-adv-x="752" 
d="M466 -11q-67 0 -112 30.5t-67 82.5t-22 114v1h-82q-2 -34 -3 -68t-1 -66q0 -22 1 -46.5t2 -36.5h-128q-2 21 -2.5 29.5t-0.5 18.5q0 49 2 104t5 112t7 110.5t8.5 100.5t8.5 83q2 17 5.5 45.5t7.5 48.5l-70 -3l4 76q47 0 78 5t49 12t25 13h54l-8 -68l-8 -68l-8 -68
q-7 -63 -13 -130t-11 -135h84q12 64 45 114.5t84 80.5t116 30q56 0 101.5 -26t72.5 -76t27 -121q0 -60 -17 -113.5t-50 -95.5t-79 -66t-105 -24zM482 55q26 0 44 20t29.5 51.5t17 66.5t6.5 66q1 27 -2 59t-11 61t-24 47.5t-41 18.5q-30 1 -52.5 -26.5t-35 -73.5t-12.5 -101
q0 -30 3.5 -63t13 -61.5t25 -46.5t39.5 -18z" />
    <glyph glyph-name="uni0308.case" 
d="M105 797q-25 0 -42.5 20.5t-17.5 50.5q0 33 21 57t49 24q26 0 42.5 -21t16.5 -50q0 -32 -20 -56.5t-49 -24.5zM280 797q-26 0 -43 20.5t-17 50.5q0 33 20.5 57t48.5 24q27 0 43 -21t16 -50q0 -33 -19.5 -57t-48.5 -24z" />
    <glyph glyph-name="gravecomb.case" 
d="M224 770l-141 84q-15 10 -26 24.5t-12 31.5t12 33q13 17 30.5 19.5t35.5 -5t31 -21.5l109 -117z" />
    <glyph glyph-name="acutecomb.case" 
d="M79 770l-34 48l122 118q15 14 33 21.5t35.5 5t28.5 -19.5q12 -17 9 -34t-15 -31t-29 -24z" />
    <glyph glyph-name="brevecombcy" 
d="M256 585q-34 0 -65.5 11t-51 32.5t-16.5 53.5q3 29 22 43t40 14q33 1 44.5 -18.5t11.5 -33.5q-1 -7 -4 -16t-10 -19q9 -7 22 -11t27 -4q39 0 68 23q14 11 24 26.5t18 34.5l52 -37q-37 -49 -83.5 -74t-98.5 -25z" />
    <glyph glyph-name="brevecombcy.case" 
d="M213 758q-34 0 -65.5 11t-51 32.5t-16.5 52.5q3 29 22 43t40 15q22 1 34 -8.5t17 -22t5 -22.5q-1 -6 -3.5 -15.5t-10.5 -18.5q9 -7 22.5 -10.5t27.5 -3.5q15 0 30 3.5t26 10.5q15 10 26.5 27t25.5 42l53 -38q-37 -49 -83.5 -73.5t-98.5 -24.5z" />
    <glyph glyph-name="uni0402.BRACKET.699" horiz-adv-x="803" 
d="M569 423q75 0 120 -27t65 -72.5t17 -103.5q-2 -62 -23.5 -116t-64.5 -86.5t-112 -32.5q-20 0 -59 4t-72 17l21 65q34 -13 67 -13q39 0 60 43.5t25 113.5q5 76 -22 103t-75 27q-34 0 -64 -6.5t-51 -14.5l-8 -160q-1 -27 -3.5 -52t-5.5 -38l-4 -74h-212l4 66q23 1 39 6
t25.5 23t11.5 58l25 479h-46q-57 -1 -92 -39t-40 -119h-66l17 226h606l-4 -200h-66q3 45 -11 74.5t-41 44.5t-65 14h-48l-12 -235q38 13 85 19t79 6z" />
    </font>
</defs>
</svg>
