<svg xmlns="http://www.w3.org/2000/svg" viewBox="0 0 141.7 141.75"><defs><style>.a{fill:#0088e7;}.a,.b{fill-rule:evenodd;}.b{fill:#fff;}</style></defs><title>vk</title><path class="a" d="M49.1,0H92.6c39.7,0,49.1,9.4,49.1,49.1V92.65c0,39.7-9.4,49.1-49.1,49.1H49.1c-39.7,0-49.1-9.4-49.1-49.1V49.15C0,9.45,9.4.05,49.1.05" transform="translate(0)"/><path class="b" d="M116,48.8c.7-2.2,0-3.8-3.1-3.8H102.6a4.56,4.56,0,0,0-4.5,2.9S92.8,60.7,85.4,69c-2.4,2.4-3.5,3.2-4.8,3.2-.7,0-1.6-.8-1.6-3V48.7c0-2.6-.8-3.8-3-3.8H59.8a2.48,2.48,0,0,0-2.6,2.36v0c0,2.5,3.7,3.1,4.1,10.1V72.65c0,3.3-.6,3.9-1.9,3.9-3.5,0-12-12.9-17.1-27.6-1-2.9-2-4-4.6-4H27.3c-3,0-3.5,1.4-3.5,2.9,0,2.7,3.5,16.3,16.3,34.3,8.5,12.3,20.6,18.9,31.5,18.9,6.6,0,7.4-1.5,7.4-4v-9.3c0-3,.6-3.5,2.7-3.5,1.5,0,4.2.8,10.3,6.7,7,7,8.2,10.2,12.1,10.2h10.34c3,0,4.4-1.5,3.6-4.4s-4.3-7.1-8.7-12.1c-2.4-2.8-6-5.9-7.1-7.4-1.5-2-1.1-2.8,0-4.6-.1,0,12.5-17.8,13.8-23.8" transform="translate(0)"/></svg>