<svg xmlns="http://www.w3.org/2000/svg" viewBox="0 0 220.28 103.34"><defs><style>.a{fill:#fff;}</style></defs><title>Ресурс 1</title><path class="a" d="M22.52,45.25a2.38,2.38,0,0,1-2.37-2.31l-.06-2.21H20A12.46,12.46,0,0,1,9.65,45.86c-3.21,0-5.63-1-7.24-2.9S0,38,0,33.79V16.25a2.37,2.37,0,0,1,2.37-2.37H3.54a2.37,2.37,0,0,1,2.37,2.37V33.18c0,2.86.46,4.84,1.36,6s2.4,1.66,4.5,1.66a7.32,7.32,0,0,0,5.61-3,10.51,10.51,0,0,0,2.53-7V16.25a2.37,2.37,0,0,1,2.37-2.37h1.29a2.37,2.37,0,0,1,2.37,2.37V42.88a2.37,2.37,0,0,1-2.37,2.37Z"/><path class="a" d="M39.56,13.88a2.36,2.36,0,0,1,2.37,2.31L42,18.4h.12a13.87,13.87,0,0,1,4.65-3.77,12.59,12.59,0,0,1,5.67-1.36q10.26,0,10.26,13.88V42.88a2.37,2.37,0,0,1-2.37,2.37H59.15a2.37,2.37,0,0,1-2.37-2.37V27.75c0-3.66-.48-6.16-1.42-7.51s-2.63-2-5-2q-3.07,0-5.61,3.05a10.75,10.75,0,0,0-2.54,7.09V42.88a2.37,2.37,0,0,1-2.37,2.37H38.51a2.37,2.37,0,0,1-2.37-2.37V16.25a2.37,2.37,0,0,1,2.37-2.37Z"/><path class="a" d="M74.7,4.26V2.37A2.37,2.37,0,0,1,77.07,0h1.65a2.37,2.37,0,0,1,2.37,2.37V4.26a2.38,2.38,0,0,1-2.37,2.38H77.07A2.38,2.38,0,0,1,74.7,4.26Zm0,38.62V16.25a2.37,2.37,0,0,1,2.37-2.37h1.65a2.37,2.37,0,0,1,2.37,2.37V42.88a2.37,2.37,0,0,1-2.37,2.37H77.07A2.37,2.37,0,0,1,74.7,42.88Z"/><path class="a" d="M96,13.88a2.36,2.36,0,0,1,2.27,1.68l7.88,26.07h.12l7.88-26.07a2.36,2.36,0,0,1,2.27-1.68h1.42A2.37,2.37,0,0,1,120.06,17l-9.21,26.63a2.39,2.39,0,0,1-2.25,1.59h-5.07a2.37,2.37,0,0,1-2.24-1.59L92.08,17a2.37,2.37,0,0,1,2.24-3.15Z"/><path class="a" d="M135.8,32a2.39,2.39,0,0,0-2.23,3.21,8.55,8.55,0,0,0,2.34,3.49,9.9,9.9,0,0,0,6.9,2.47,18.92,18.92,0,0,0,6.74-1.27,2.39,2.39,0,0,1,3.13,1.45h0a2.37,2.37,0,0,1-1.44,3,26.53,26.53,0,0,1-9,1.55,14.74,14.74,0,0,1-11.07-4.44q-4.32-4.44-4.32-11.86c0-5.06,1.34-9,4-11.94s6.26-4.35,10.77-4.35,7.94,1.37,10.43,4.11,3.75,6.69,3.75,11.88c0,.13,0,.27,0,.42a2.37,2.37,0,0,1-2.37,2.3Zm-.14-4.71H147.3a2.37,2.37,0,0,0,2.34-2.82,8.55,8.55,0,0,0-2-4.06A7.83,7.83,0,0,0,141.61,18a8.13,8.13,0,0,0-6.19,2.44,8.64,8.64,0,0,0-2.08,4A2.35,2.35,0,0,0,135.66,27.27Z"/><path class="a" d="M184.69,15.79v.3a2.39,2.39,0,0,1-2.18,2.36,13.82,13.82,0,0,0-8.32,3.48,12.27,12.27,0,0,0-3.86,9.44V42.88A2.38,2.38,0,0,1,168,45.25h-1.41a2.37,2.37,0,0,1-2.37-2.37V16.25a2.37,2.37,0,0,1,2.37-2.37h1.16a2.36,2.36,0,0,1,2.37,2.32l.08,3.71h.12A17.64,17.64,0,0,1,182,13.44,2.39,2.39,0,0,1,184.69,15.79Z"/><path class="a" d="M206,38h.13l8.35-22.58a2.38,2.38,0,0,1,2.23-1.55h1.22a2.37,2.37,0,0,1,2.2,3.26L203.93,57.05a2.37,2.37,0,0,1-2.2,1.48h-1.17a2.38,2.38,0,0,1-2.18-3.32l4-9.09a2.38,2.38,0,0,0,.05-1.76l-10-27.3a2.37,2.37,0,0,1,2.22-3.18h1.54a2.37,2.37,0,0,1,2.25,1.62Z"/><path class="a" d="M6.28,73.25a8.36,8.36,0,0,1,7.29-3.85,8.53,8.53,0,0,1,7,3.1q2.51,3.1,2.51,9.12c0,4-.87,7-2.6,9.08a8.54,8.54,0,0,1-6.9,3.14,8.55,8.55,0,0,1-7.15-3.39H6.33v11.08a1.81,1.81,0,0,1-1.81,1.81H3.61a1.81,1.81,0,0,1-1.81-1.81V71.67a1.81,1.81,0,0,1,1.81-1.81h.73a1.81,1.81,0,0,1,1.81,1.76l0,1.63Zm12.35,8.37q0-4.29-1.62-6.45A5.42,5.42,0,0,0,12.43,73a5.27,5.27,0,0,0-4.38,2.25A9.79,9.79,0,0,0,6.33,81.4v.45A9.78,9.78,0,0,0,8.05,88a5.29,5.29,0,0,0,4.38,2.22A5.39,5.39,0,0,0,16.94,88Q18.63,85.8,18.63,81.62Z"/><path class="a" d="M30.94,91.58V61.26a1.81,1.81,0,0,1,1.81-1.81h1.18a1.81,1.81,0,0,1,1.81,1.81V91.58a1.81,1.81,0,0,1-1.81,1.81H32.75A1.81,1.81,0,0,1,30.94,91.58Z"/><path class="a" d="M61.66,93.39a1.8,1.8,0,0,1-1.8-1.76l0-1.64h-.09A9.34,9.34,0,0,1,52,93.84a6.67,6.67,0,0,1-5.43-2.17c-1.2-1.45-1.81-3.74-1.81-6.88V71.67a1.81,1.81,0,0,1,1.81-1.81h.82a1.81,1.81,0,0,1,1.81,1.81V84.34c0,2.14.34,3.63,1,4.46A4.11,4.11,0,0,0,53.57,90a5.5,5.5,0,0,0,4.21-2.24,7.92,7.92,0,0,0,1.9-5.27V71.67a1.81,1.81,0,0,1,1.81-1.81h.9a1.81,1.81,0,0,1,1.81,1.81V91.58a1.81,1.81,0,0,1-1.81,1.81Z"/><path class="a" d="M80,73c-3,0-4.52,1-4.52,3a2.58,2.58,0,0,0,1.06,2.19,8.66,8.66,0,0,0,3.69,1.2c3.17.48,5.43,1.34,6.79,2.56a6.54,6.54,0,0,1,2,5.13,5.92,5.92,0,0,1-2.38,5A10.79,10.79,0,0,1,80,93.84a18.46,18.46,0,0,1-7.67-1.57,1.81,1.81,0,0,1-1-2.1h0A1.81,1.81,0,0,1,73.81,89,15.48,15.48,0,0,0,80,90.22c3,0,4.44-1,4.44-3.17a2.9,2.9,0,0,0-1-2.37,7.81,7.81,0,0,0-3.64-1.25Q75.1,82.67,73,80.88A6.14,6.14,0,0,1,70.94,76a5.71,5.71,0,0,1,2.36-4.78A10.89,10.89,0,0,1,80,69.4a18.66,18.66,0,0,1,6.65,1.16,1.83,1.83,0,0,1,1.13,2.15v0A1.82,1.82,0,0,1,85.32,74,15.29,15.29,0,0,0,80,73Z"/></svg>